<svg width="50" height="50" viewBox="0 0 50 50" fill="none" xmlns="http://www.w3.org/2000/svg">
<g clip-path="url(#clip0_106_2)">
<path d="M49.3791 36.7045L48.5398 49.3036H16.194V47.7263C20.1848 47.7263 21.1287 44.693 21.1287 41.019V16.811C21.1287 13.1358 20.1848 10.1025 16.194 10.1025V8.46906H34.9388V10.1025C30.948 10.1025 30.0041 13.1358 30.0041 16.811V47.027H38.987C43.5035 47.027 46.0761 42.5938 47.7033 36.7019L49.3791 36.7045Z" fill="#137DC5" stroke="white" stroke-miterlimit="10"/>
<path d="M18.185 47.4417C18.2453 47.3945 18.908 46.8981 18.9389 46.8496C15.0395 46.2116 13.1339 44.8219 12.567 42.2747C11.5745 37.8377 15.0881 36.1557 18.45 36.3574C18.45 33.8051 15.471 30.2384 10.3507 29.7688C4.69887 29.2979 0.114665 33.3993 1.49008 39.2491C2.71381 44.5807 8.17863 47.7353 16.0939 48.9973C16.7551 48.4448 17.4708 48.0007 18.185 47.4417Z" fill="#126D9E" stroke="white" stroke-width="2" stroke-miterlimit="10"/>
<path d="M31.3397 21.0899C25.5377 18.2008 15.605 15.0385 15.9864 9.59206C16.2161 5.55825 20.8754 3.5407 25.6113 3.94396C32.8683 4.54884 36.1522 8.31466 38.2153 16.5176H40.5833L39.2137 2.4292H37.669C36.5984 6.25756 34.014 2.12804 25.6113 1.52316C17.8198 1.05227 6.05662 2.73419 5.36892 13.2903C4.83436 22.2333 14.4593 26.0668 22.0211 29.5582C30.2677 33.259 35.6176 35.3403 34.472 41.0561C34.014 43.1936 33.0391 44.7007 30.2515 45.8224C30.2515 45.8313 30.2515 46.0942 30.2515 46.1031C30.2515 46.5434 30.2426 46.7948 30.278 46.8688C30.3619 46.8688 31.7211 46.8688 31.8066 46.8688C33.5324 46.8688 34.1156 46.8764 35.8268 46.8573C40.8601 44.9355 44.7404 42.4432 45.6196 37.5021C47.3808 28.083 38.6733 24.5814 31.3397 21.0899Z" fill="#126D9E" stroke="white" stroke-width="2" stroke-miterlimit="10"/>
</g>
<defs>
<clipPath id="clip0_106_2">
<rect width="50" height="50" fill="white"/>
</clipPath>
</defs>
</svg>
