<svg width="220" height="54" viewBox="0 0 220 54" fill="none" xmlns="http://www.w3.org/2000/svg">
<path d="M58 51.1111L219 52.0112" stroke="#08405D" stroke-width="2"/>
<path d="M57.855 48V37.5H63.03C64.2 37.5 65.23 37.715 66.12 38.145C67.01 38.565 67.705 39.165 68.205 39.945C68.705 40.725 68.955 41.655 68.955 42.735C68.955 43.825 68.705 44.765 68.205 45.555C67.705 46.335 67.01 46.94 66.12 47.37C65.23 47.79 64.2 48 63.03 48H57.855ZM61.395 45.24H62.88C63.38 45.24 63.815 45.145 64.185 44.955C64.565 44.765 64.86 44.485 65.07 44.115C65.28 43.735 65.385 43.275 65.385 42.735C65.385 42.205 65.28 41.755 65.07 41.385C64.86 41.015 64.565 40.735 64.185 40.545C63.815 40.355 63.38 40.26 62.88 40.26H61.395V45.24ZM73.4876 41.4H78.1676V43.95H73.4876V41.4ZM73.7276 45.33H78.9776V48H70.2476V37.5H78.7826V40.17H73.7276V45.33ZM84.2554 48.24C83.3754 48.24 82.5254 48.14 81.7054 47.94C80.8854 47.74 80.2104 47.48 79.6804 47.16L80.8204 44.58C81.3204 44.87 81.8754 45.105 82.4854 45.285C83.1054 45.455 83.7054 45.54 84.2854 45.54C84.6254 45.54 84.8904 45.52 85.0804 45.48C85.2804 45.43 85.4254 45.365 85.5154 45.285C85.6054 45.195 85.6504 45.09 85.6504 44.97C85.6504 44.78 85.5454 44.63 85.3354 44.52C85.1254 44.41 84.8454 44.32 84.4954 44.25C84.1554 44.17 83.7804 44.09 83.3704 44.01C82.9604 43.92 82.5454 43.805 82.1254 43.665C81.7154 43.525 81.3354 43.34 80.9854 43.11C80.6454 42.88 80.3704 42.58 80.1604 42.21C79.9504 41.83 79.8454 41.36 79.8454 40.8C79.8454 40.15 80.0254 39.56 80.3854 39.03C80.7554 38.49 81.3004 38.06 82.0204 37.74C82.7504 37.42 83.6554 37.26 84.7354 37.26C85.4454 37.26 86.1454 37.335 86.8354 37.485C87.5254 37.635 88.1454 37.865 88.6954 38.175L87.6304 40.74C87.1104 40.48 86.6054 40.285 86.1154 40.155C85.6354 40.025 85.1654 39.96 84.7054 39.96C84.3654 39.96 84.0954 39.99 83.8954 40.05C83.6954 40.11 83.5504 40.19 83.4604 40.29C83.3804 40.39 83.3404 40.5 83.3404 40.62C83.3404 40.8 83.4454 40.945 83.6554 41.055C83.8654 41.155 84.1404 41.24 84.4804 41.31C84.8304 41.38 85.2104 41.455 85.6204 41.535C86.0404 41.615 86.4554 41.725 86.8654 41.865C87.2754 42.005 87.6504 42.19 87.9904 42.42C88.3404 42.65 88.6204 42.95 88.8304 43.32C89.0404 43.69 89.1454 44.15 89.1454 44.7C89.1454 45.34 88.9604 45.93 88.5904 46.47C88.2304 47 87.6904 47.43 86.9704 47.76C86.2504 48.08 85.3454 48.24 84.2554 48.24ZM93.4388 41.4H98.1188V43.95H93.4388V41.4ZM93.6788 45.33H98.9288V48H90.1988V37.5H98.7338V40.17H93.6788V45.33ZM100.292 48V37.5H103.202L108.542 43.89H107.192V37.5H110.642V48H107.732L102.392 41.61H103.742V48H100.292ZM115.647 48L111.207 37.5H115.017L118.632 46.365H116.367L120.087 37.5H123.567L119.127 48H115.647ZM129.278 48.24C128.428 48.24 127.638 48.105 126.908 47.835C126.188 47.565 125.563 47.185 125.033 46.695C124.503 46.195 124.088 45.61 123.788 44.94C123.498 44.27 123.353 43.54 123.353 42.75C123.353 41.95 123.498 41.22 123.788 40.56C124.088 39.89 124.503 39.31 125.033 38.82C125.563 38.32 126.188 37.935 126.908 37.665C127.638 37.395 128.428 37.26 129.278 37.26C130.138 37.26 130.928 37.395 131.648 37.665C132.368 37.935 132.993 38.32 133.523 38.82C134.053 39.31 134.463 39.89 134.753 40.56C135.053 41.22 135.203 41.95 135.203 42.75C135.203 43.54 135.053 44.27 134.753 44.94C134.463 45.61 134.053 46.195 133.523 46.695C132.993 47.185 132.368 47.565 131.648 47.835C130.928 48.105 130.138 48.24 129.278 48.24ZM129.278 45.375C129.608 45.375 129.913 45.315 130.193 45.195C130.483 45.075 130.733 44.905 130.943 44.685C131.163 44.455 131.333 44.18 131.453 43.86C131.573 43.53 131.633 43.16 131.633 42.75C131.633 42.34 131.573 41.975 131.453 41.655C131.333 41.325 131.163 41.05 130.943 40.83C130.733 40.6 130.483 40.425 130.193 40.305C129.913 40.185 129.608 40.125 129.278 40.125C128.948 40.125 128.638 40.185 128.348 40.305C128.068 40.425 127.818 40.6 127.598 40.83C127.388 41.05 127.223 41.325 127.103 41.655C126.983 41.975 126.923 42.34 126.923 42.75C126.923 43.16 126.983 43.53 127.103 43.86C127.223 44.18 127.388 44.455 127.598 44.685C127.818 44.905 128.068 45.075 128.348 45.195C128.638 45.315 128.948 45.375 129.278 45.375ZM136.488 48V37.5H140.028V45.255H144.768V48H136.488ZM148.372 48L143.932 37.5H147.742L151.357 46.365H149.092L152.812 37.5H156.292L151.852 48H148.372ZM156.644 48V37.5H160.184V48H156.644ZM161.888 48V37.5H164.798L168.998 44.355H167.468L171.548 37.5H174.458L174.488 48H171.263L171.233 42.36H171.743L168.953 47.055H167.393L164.483 42.36H165.113V48H161.888ZM179.44 41.4H184.12V43.95H179.44V41.4ZM179.68 45.33H184.93V48H176.2V37.5H184.735V40.17H179.68V45.33ZM186.293 48V37.5H189.203L194.543 43.89H193.193V37.5H196.643V48H193.733L188.393 41.61H189.743V48H186.293ZM200.628 48V40.245H197.553V37.5H207.243V40.245H204.168V48H200.628ZM213.521 48.24C212.671 48.24 211.881 48.105 211.151 47.835C210.431 47.565 209.806 47.185 209.276 46.695C208.746 46.195 208.331 45.61 208.031 44.94C207.741 44.27 207.596 43.54 207.596 42.75C207.596 41.95 207.741 41.22 208.031 40.56C208.331 39.89 208.746 39.31 209.276 38.82C209.806 38.32 210.431 37.935 211.151 37.665C211.881 37.395 212.671 37.26 213.521 37.26C214.381 37.26 215.171 37.395 215.891 37.665C216.611 37.935 217.236 38.32 217.766 38.82C218.296 39.31 218.706 39.89 218.996 40.56C219.296 41.22 219.446 41.95 219.446 42.75C219.446 43.54 219.296 44.27 218.996 44.94C218.706 45.61 218.296 46.195 217.766 46.695C217.236 47.185 216.611 47.565 215.891 47.835C215.171 48.105 214.381 48.24 213.521 48.24ZM213.521 45.375C213.851 45.375 214.156 45.315 214.436 45.195C214.726 45.075 214.976 44.905 215.186 44.685C215.406 44.455 215.576 44.18 215.696 43.86C215.816 43.53 215.876 43.16 215.876 42.75C215.876 42.34 215.816 41.975 215.696 41.655C215.576 41.325 215.406 41.05 215.186 40.83C214.976 40.6 214.726 40.425 214.436 40.305C214.156 40.185 213.851 40.125 213.521 40.125C213.191 40.125 212.881 40.185 212.591 40.305C212.311 40.425 212.061 40.6 211.841 40.83C211.631 41.05 211.466 41.325 211.346 41.655C211.226 41.975 211.166 42.34 211.166 42.75C211.166 43.16 211.226 43.53 211.346 43.86C211.466 44.18 211.631 44.455 211.841 44.685C212.061 44.905 212.311 45.075 212.591 45.195C212.881 45.315 213.191 45.375 213.521 45.375Z" fill="white"/>
<path d="M57.855 48H57.555V48.3H57.855V48ZM57.855 37.5V37.2H57.555V37.5H57.855ZM66.12 38.145L65.9895 38.4151L65.992 38.4163L66.12 38.145ZM68.205 39.945L67.9524 40.1069L67.9524 40.1069L68.205 39.945ZM68.205 45.555L68.4576 45.7169L68.4585 45.7154L68.205 45.555ZM66.12 47.37L66.248 47.6413L66.2505 47.6401L66.12 47.37ZM61.395 45.24H61.095V45.54H61.395V45.24ZM64.185 44.955L64.0508 44.6867L64.048 44.6881L64.185 44.955ZM65.07 44.115L65.3309 44.2631L65.3326 44.2601L65.07 44.115ZM65.07 41.385L65.3309 41.2369L65.3309 41.2369L65.07 41.385ZM64.185 40.545L64.048 40.8119L64.0508 40.8133L64.185 40.545ZM61.395 40.26V39.96H61.095V40.26H61.395ZM58.155 48V37.5H57.555V48H58.155ZM57.855 37.8H63.03V37.2H57.855V37.8ZM63.03 37.8C64.163 37.8 65.147 38.0081 65.9895 38.4151L66.2505 37.8749C65.313 37.4219 64.237 37.2 63.03 37.2V37.8ZM65.992 38.4163C66.8343 38.8138 67.4848 39.3773 67.9524 40.1069L68.4576 39.7831C67.9252 38.9527 67.1857 38.3162 66.248 37.8737L65.992 38.4163ZM67.9524 40.1069C68.4166 40.831 68.655 41.7027 68.655 42.735H69.255C69.255 41.6073 68.9934 40.619 68.4576 39.7831L67.9524 40.1069ZM68.655 42.735C68.655 43.7778 68.4164 44.6601 67.9515 45.3946L68.4585 45.7154C68.9936 44.8699 69.255 43.8722 69.255 42.735H68.655ZM67.9524 45.3931C67.4844 46.1233 66.8331 46.6923 65.9895 47.0999L66.2505 47.6401C67.1869 47.1877 67.9256 46.5467 68.4576 45.7169L67.9524 45.3931ZM65.992 47.0987C65.1489 47.4966 64.164 47.7 63.03 47.7V48.3C64.236 48.3 65.3111 48.0834 66.248 47.6413L65.992 47.0987ZM63.03 47.7H57.855V48.3H63.03V47.7ZM61.395 45.54H62.88V44.94H61.395V45.54ZM62.88 45.54C63.4181 45.54 63.9019 45.4376 64.322 45.2219L64.048 44.6881C63.7281 44.8524 63.3419 44.94 62.88 44.94V45.54ZM64.3192 45.2233C64.7525 45.0067 65.0916 44.6848 65.3309 44.2631L64.8091 43.9669C64.6284 44.2852 64.3775 44.5233 64.0508 44.6867L64.3192 45.2233ZM65.3326 44.2601C65.5724 43.8261 65.685 43.3136 65.685 42.735H65.085C65.085 43.2364 64.9876 43.6439 64.8074 43.9699L65.3326 44.2601ZM65.685 42.735C65.685 42.1657 65.5721 41.6619 65.3309 41.2369L64.8091 41.5331C64.9879 41.8481 65.085 42.2443 65.085 42.735H65.685ZM65.3309 41.2369C65.0916 40.8152 64.7525 40.4933 64.3192 40.2767L64.0508 40.8133C64.3775 40.9767 64.6284 41.2148 64.8091 41.5331L65.3309 41.2369ZM64.322 40.2781C63.9019 40.0624 63.4181 39.96 62.88 39.96V40.56C63.3419 40.56 63.7281 40.6476 64.048 40.8119L64.322 40.2781ZM62.88 39.96H61.395V40.56H62.88V39.96ZM61.095 40.26V45.24H61.695V40.26H61.095ZM73.4876 41.4V41.1H73.1876V41.4H73.4876ZM78.1676 41.4H78.4676V41.1H78.1676V41.4ZM78.1676 43.95V44.25H78.4676V43.95H78.1676ZM73.4876 43.95H73.1876V44.25H73.4876V43.95ZM73.7276 45.33H73.4276V45.63H73.7276V45.33ZM78.9776 45.33H79.2776V45.03H78.9776V45.33ZM78.9776 48V48.3H79.2776V48H78.9776ZM70.2476 48H69.9476V48.3H70.2476V48ZM70.2476 37.5V37.2H69.9476V37.5H70.2476ZM78.7826 37.5H79.0826V37.2H78.7826V37.5ZM78.7826 40.17V40.47H79.0826V40.17H78.7826ZM73.7276 40.17V39.87H73.4276V40.17H73.7276ZM73.4876 41.7H78.1676V41.1H73.4876V41.7ZM77.8676 41.4V43.95H78.4676V41.4H77.8676ZM78.1676 43.65H73.4876V44.25H78.1676V43.65ZM73.7876 43.95V41.4H73.1876V43.95H73.7876ZM73.7276 45.63H78.9776V45.03H73.7276V45.63ZM78.6776 45.33V48H79.2776V45.33H78.6776ZM78.9776 47.7H70.2476V48.3H78.9776V47.7ZM70.5476 48V37.5H69.9476V48H70.5476ZM70.2476 37.8H78.7826V37.2H70.2476V37.8ZM78.4826 37.5V40.17H79.0826V37.5H78.4826ZM78.7826 39.87H73.7276V40.47H78.7826V39.87ZM73.4276 40.17V45.33H74.0276V40.17H73.4276ZM81.7054 47.94L81.7764 47.6485L81.7054 47.94ZM79.6804 47.16L79.4059 47.0388L79.2992 47.2803L79.5253 47.4168L79.6804 47.16ZM80.8204 44.58L80.9709 44.3205L80.6813 44.1525L80.5459 44.4588L80.8204 44.58ZM82.4854 45.285L82.4004 45.5728L82.406 45.5743L82.4854 45.285ZM85.0804 45.48L85.1422 45.7738L85.1531 45.771L85.0804 45.48ZM85.5154 45.285L85.7147 45.5092L85.7212 45.5034L85.7275 45.4971L85.5154 45.285ZM85.3354 44.52L85.1961 44.7857L85.1961 44.7857L85.3354 44.52ZM84.4954 44.25L84.4266 44.5422L84.4365 44.5442L84.4954 44.25ZM83.3704 44.01L83.306 44.3031L83.3129 44.3044L83.3704 44.01ZM82.1254 43.665L82.0284 43.9489L82.0305 43.9496L82.1254 43.665ZM80.9854 43.11L80.8172 43.3585L80.8206 43.3607L80.9854 43.11ZM80.1604 42.21L79.8978 42.3551L79.8994 42.3581L80.1604 42.21ZM80.3854 39.03L80.1379 38.8604L80.1372 38.8614L80.3854 39.03ZM82.0204 37.74L81.8999 37.4652L81.8985 37.4659L82.0204 37.74ZM86.8354 37.485L86.7716 37.7782L86.7716 37.7782L86.8354 37.485ZM88.6954 38.175L88.9724 38.29L89.0744 38.0443L88.8427 37.9137L88.6954 38.175ZM87.6304 40.74L87.4962 41.0083L87.784 41.1522L87.9074 40.855L87.6304 40.74ZM86.1154 40.155L86.0369 40.4446L86.0384 40.445L86.1154 40.155ZM83.8954 40.05L83.8091 39.7627L83.8091 39.7627L83.8954 40.05ZM83.4604 40.29L83.2374 40.0893L83.2315 40.0958L83.2261 40.1026L83.4604 40.29ZM83.6554 41.055L83.516 41.3209L83.5264 41.3259L83.6554 41.055ZM84.4804 41.31L84.4199 41.6038L84.4215 41.6042L84.4804 41.31ZM85.6204 41.535L85.5629 41.8294L85.5642 41.8297L85.6204 41.535ZM86.8654 41.865L86.7684 42.1489L86.7684 42.1489L86.8654 41.865ZM87.9904 42.42L87.8222 42.6685L87.8256 42.6707L87.9904 42.42ZM88.8304 43.32L88.5694 43.4681L88.5694 43.4681L88.8304 43.32ZM88.5904 46.47L88.3429 46.3004L88.3422 46.3014L88.5904 46.47ZM86.9704 47.76L87.0922 48.0342L87.0953 48.0327L86.9704 47.76ZM84.2554 47.94C83.3983 47.94 82.5722 47.8426 81.7764 47.6485L81.6343 48.2315C82.4785 48.4374 83.3524 48.54 84.2554 48.54V47.94ZM81.7764 47.6485C80.9761 47.4533 80.3318 47.2029 79.8354 46.9032L79.5253 47.4168C80.0889 47.7571 80.7946 48.0267 81.6343 48.2315L81.7764 47.6485ZM79.9548 47.2812L81.0948 44.7012L80.5459 44.4588L79.4059 47.0388L79.9548 47.2812ZM80.6698 44.8395C81.1925 45.1426 81.7698 45.3866 82.4004 45.5727L82.5703 44.9973C81.9809 44.8234 81.4483 44.5974 80.9709 44.3205L80.6698 44.8395ZM82.406 45.5743C83.0491 45.7507 83.6758 45.84 84.2854 45.84V45.24C83.7349 45.24 83.1616 45.1593 82.5647 44.9957L82.406 45.5743ZM84.2854 45.84C84.6331 45.84 84.9222 45.8199 85.1422 45.7736L85.0185 45.1864C84.8585 45.2201 84.6176 45.24 84.2854 45.24V45.84ZM85.1531 45.771C85.371 45.7166 85.5713 45.6367 85.7147 45.5092L85.316 45.0608C85.2794 45.0933 85.1897 45.1434 85.0076 45.189L85.1531 45.771ZM85.7275 45.4971C85.87 45.3547 85.9504 45.1748 85.9504 44.97H85.3504C85.3504 45.0052 85.3407 45.0353 85.3032 45.0729L85.7275 45.4971ZM85.9504 44.97C85.9504 44.639 85.7543 44.4008 85.4746 44.2543L85.1961 44.7857C85.3364 44.8592 85.3504 44.921 85.3504 44.97H85.9504ZM85.4746 44.2543C85.2299 44.1261 84.9196 44.0289 84.5542 43.9558L84.4365 44.5442C84.7711 44.6111 85.0208 44.6939 85.1961 44.7857L85.4746 44.2543ZM84.5641 43.958C84.2197 43.8769 83.8409 43.7962 83.4278 43.7156L83.3129 44.3044C83.7198 44.3838 84.091 44.4631 84.4266 44.542L84.5641 43.958ZM83.4347 43.717C83.0355 43.6294 82.6307 43.5172 82.2202 43.3804L82.0305 43.9496C82.46 44.0928 82.8852 44.2106 83.306 44.303L83.4347 43.717ZM82.2223 43.3811C81.8354 43.249 81.4783 43.0749 81.1501 42.8593L80.8206 43.3607C81.1924 43.6051 81.5953 43.801 82.0284 43.9489L82.2223 43.3811ZM81.1534 42.8615C80.8531 42.6583 80.6093 42.3933 80.4213 42.0619L79.8994 42.3581C80.1314 42.7667 80.4376 43.1017 80.8173 43.3585L81.1534 42.8615ZM80.4229 42.0649C80.2436 41.7404 80.1454 41.3236 80.1454 40.8H79.5454C79.5454 41.3964 79.6571 41.9196 79.8978 42.3551L80.4229 42.0649ZM80.1454 40.8C80.1454 40.2092 80.3078 39.6781 80.6335 39.1986L80.1372 38.8614C79.7429 39.4419 79.5454 40.0908 79.5454 40.8H80.1454ZM80.6328 39.1996C80.9656 38.7139 81.4625 38.3162 82.1422 38.0141L81.8985 37.4659C81.1382 37.8038 80.5451 38.2661 80.1379 38.8604L80.6328 39.1996ZM82.1408 38.0148C82.8219 37.7162 83.6829 37.56 84.7354 37.56V36.96C83.6278 36.96 82.6788 37.1238 81.8999 37.4652L82.1408 38.0148ZM84.7354 37.56C85.424 37.56 86.1027 37.6327 86.7716 37.7782L86.8991 37.1918C86.188 37.0373 85.4667 36.96 84.7354 36.96V37.56ZM86.7716 37.7782C87.4358 37.9225 88.027 38.1427 88.548 38.4363L88.8427 37.9137C88.2637 37.5873 87.6149 37.3475 86.8991 37.1918L86.7716 37.7782ZM88.4183 38.06L87.3533 40.625L87.9074 40.855L88.9724 38.29L88.4183 38.06ZM87.7645 40.4717C87.2288 40.2038 86.7047 40.001 86.1923 39.865L86.0384 40.445C86.506 40.569 86.9919 40.7562 87.4962 41.0083L87.7645 40.4717ZM86.1938 39.8654C85.6903 39.7291 85.1939 39.66 84.7054 39.66V40.26C85.1368 40.26 85.5804 40.3209 86.0369 40.4446L86.1938 39.8654ZM84.7054 39.66C84.352 39.66 84.0491 39.6907 83.8091 39.7627L83.9816 40.3373C84.1416 40.2893 84.3787 40.26 84.7054 40.26V39.66ZM83.8091 39.7627C83.5832 39.8304 83.3792 39.9318 83.2374 40.0893L83.6833 40.4907C83.7216 40.4482 83.8076 40.3895 83.9816 40.3373L83.8091 39.7627ZM83.2261 40.1026C83.1066 40.252 83.0404 40.4271 83.0404 40.62H83.6404C83.6404 40.5729 83.6541 40.528 83.6946 40.4774L83.2261 40.1026ZM83.0404 40.62C83.0404 40.9475 83.2438 41.1781 83.5161 41.3207L83.7946 40.7893C83.6469 40.7119 83.6404 40.6525 83.6404 40.62H83.0404ZM83.5264 41.3259C83.766 41.44 84.0666 41.5311 84.4199 41.6038L84.5408 41.0162C84.2141 40.9489 83.9647 40.87 83.7843 40.7841L83.5264 41.3259ZM84.4215 41.6042C84.772 41.6743 85.1525 41.7494 85.5629 41.8294L85.6778 41.2406C85.2682 41.1606 84.8887 41.0857 84.5392 41.0158L84.4215 41.6042ZM85.5642 41.8297C85.9702 41.907 86.3716 42.0134 86.7684 42.1489L86.9623 41.5811C86.5391 41.4366 86.1105 41.323 85.6765 41.2403L85.5642 41.8297ZM86.7684 42.1489C87.1546 42.2808 87.5055 42.4542 87.8223 42.6685L88.1584 42.1715C87.7952 41.9258 87.3961 41.7292 86.9623 41.5811L86.7684 42.1489ZM87.8256 42.6707C88.1352 42.8742 88.3825 43.1387 88.5694 43.4681L89.0913 43.1719C88.8582 42.7613 88.5455 42.4258 88.1551 42.1693L87.8256 42.6707ZM88.5694 43.4681C88.7474 43.7816 88.8454 44.1871 88.8454 44.7H89.4454C89.4454 44.1129 89.3333 43.5984 89.0913 43.1719L88.5694 43.4681ZM88.8454 44.7C88.8454 45.278 88.6795 45.8091 88.3429 46.3004L88.8378 46.6396C89.2412 46.0509 89.4454 45.402 89.4454 44.7H88.8454ZM88.3422 46.3014C88.0195 46.7765 87.5273 47.1747 86.8454 47.4873L87.0953 48.0327C87.8534 47.6853 88.4412 47.2235 88.8385 46.6386L88.3422 46.3014ZM86.8485 47.4859C86.1786 47.7836 85.3184 47.94 84.2554 47.94V48.54C85.3723 48.54 86.3221 48.3764 87.0922 48.0341L86.8485 47.4859ZM93.4388 41.4V41.1H93.1388V41.4H93.4388ZM98.1188 41.4H98.4188V41.1H98.1188V41.4ZM98.1188 43.95V44.25H98.4188V43.95H98.1188ZM93.4388 43.95H93.1388V44.25H93.4388V43.95ZM93.6788 45.33H93.3788V45.63H93.6788V45.33ZM98.9288 45.33H99.2288V45.03H98.9288V45.33ZM98.9288 48V48.3H99.2288V48H98.9288ZM90.1988 48H89.8988V48.3H90.1988V48ZM90.1988 37.5V37.2H89.8988V37.5H90.1988ZM98.7338 37.5H99.0338V37.2H98.7338V37.5ZM98.7338 40.17V40.47H99.0338V40.17H98.7338ZM93.6788 40.17V39.87H93.3788V40.17H93.6788ZM93.4388 41.7H98.1188V41.1H93.4388V41.7ZM97.8188 41.4V43.95H98.4188V41.4H97.8188ZM98.1188 43.65H93.4388V44.25H98.1188V43.65ZM93.7388 43.95V41.4H93.1388V43.95H93.7388ZM93.6788 45.63H98.9288V45.03H93.6788V45.63ZM98.6288 45.33V48H99.2288V45.33H98.6288ZM98.9288 47.7H90.1988V48.3H98.9288V47.7ZM90.4988 48V37.5H89.8988V48H90.4988ZM90.1988 37.8H98.7338V37.2H90.1988V37.8ZM98.4338 37.5V40.17H99.0338V37.5H98.4338ZM98.7338 39.87H93.6788V40.47H98.7338V39.87ZM93.3788 40.17V45.33H93.9788V40.17H93.3788ZM100.292 48H99.9915V48.3H100.292V48ZM100.292 37.5V37.2H99.9915V37.5H100.292ZM103.202 37.5L103.432 37.3076L103.342 37.2H103.202V37.5ZM108.542 43.89V44.19H109.183L108.772 43.6976L108.542 43.89ZM107.192 43.89H106.892V44.19H107.192V43.89ZM107.192 37.5V37.2H106.892V37.5H107.192ZM110.642 37.5H110.942V37.2H110.642V37.5ZM110.642 48V48.3H110.942V48H110.642ZM107.732 48L107.501 48.1924L107.591 48.3H107.732V48ZM102.392 41.61V41.31H101.75L102.161 41.8024L102.392 41.61ZM103.742 41.61H104.042V41.31H103.742V41.61ZM103.742 48V48.3H104.042V48H103.742ZM100.592 48V37.5H99.9915V48H100.592ZM100.292 37.8H103.202V37.2H100.292V37.8ZM102.971 37.6924L108.311 44.0824L108.772 43.6976L103.432 37.3076L102.971 37.6924ZM108.542 43.59H107.192V44.19H108.542V43.59ZM107.492 43.89V37.5H106.892V43.89H107.492ZM107.192 37.8H110.642V37.2H107.192V37.8ZM110.342 37.5V48H110.942V37.5H110.342ZM110.642 47.7H107.732V48.3H110.642V47.7ZM107.962 47.8076L102.622 41.4176L102.161 41.8024L107.501 48.1924L107.962 47.8076ZM102.392 41.91H103.742V41.31H102.392V41.91ZM103.442 41.61V48H104.042V41.61H103.442ZM103.742 47.7H100.292V48.3H103.742V47.7ZM115.647 48L115.371 48.1168L115.448 48.3H115.647V48ZM111.207 37.5V37.2H110.755L110.931 37.6168L111.207 37.5ZM115.017 37.5L115.295 37.3867L115.219 37.2H115.017V37.5ZM118.632 46.365V46.665H119.079L118.91 46.2517L118.632 46.365ZM116.367 46.365L116.091 46.2489L115.916 46.665H116.367V46.365ZM120.087 37.5V37.2H119.888L119.811 37.3839L120.087 37.5ZM123.567 37.5L123.844 37.6168L124.02 37.2H123.567V37.5ZM119.127 48V48.3H119.326L119.403 48.1168L119.127 48ZM115.923 47.8832L111.483 37.3832L110.931 37.6168L115.371 48.1168L115.923 47.8832ZM111.207 37.8H115.017V37.2H111.207V37.8ZM114.739 37.6133L118.354 46.4783L118.91 46.2517L115.295 37.3867L114.739 37.6133ZM118.632 46.065H116.367V46.665H118.632V46.065ZM116.644 46.4811L120.364 37.6161L119.811 37.3839L116.091 46.2489L116.644 46.4811ZM120.087 37.8H123.567V37.2H120.087V37.8ZM123.291 37.3832L118.851 47.8832L119.403 48.1168L123.844 37.6168L123.291 37.3832ZM119.127 47.7H115.647V48.3H119.127V47.7ZM126.908 47.835L126.803 48.1159L126.804 48.1164L126.908 47.835ZM125.033 46.695L124.827 46.9132L124.829 46.9153L125.033 46.695ZM123.788 44.94L123.513 45.0592L123.514 45.0626L123.788 44.94ZM123.788 40.56L123.514 40.4374L123.513 40.4393L123.788 40.56ZM125.033 38.82L125.237 39.0403L125.239 39.0382L125.033 38.82ZM126.908 37.665L126.804 37.3836L126.803 37.3841L126.908 37.665ZM131.648 37.665L131.543 37.9459L131.543 37.9459L131.648 37.665ZM133.523 38.82L133.317 39.0382L133.319 39.0403L133.523 38.82ZM134.753 40.56L134.478 40.6792L134.48 40.6841L134.753 40.56ZM134.753 44.94L134.479 44.8174L134.478 44.8208L134.753 44.94ZM133.523 46.695L133.727 46.9153L133.729 46.9132L133.523 46.695ZM131.648 47.835L131.543 47.5541L131.543 47.5541L131.648 47.835ZM130.193 45.195L130.078 44.9178L130.075 44.9193L130.193 45.195ZM130.943 44.685L130.726 44.4776L130.726 44.4779L130.943 44.685ZM131.453 43.86L131.734 43.9653L131.735 43.9625L131.453 43.86ZM131.453 41.655L131.171 41.7575L131.172 41.7603L131.453 41.655ZM130.943 40.83L130.721 41.0325L130.731 41.0421L130.943 40.83ZM130.193 40.305L130.075 40.5808L130.078 40.5822L130.193 40.305ZM128.348 40.305L128.233 40.0278L128.23 40.0293L128.348 40.305ZM127.598 40.83L127.381 40.6226L127.381 40.6229L127.598 40.83ZM127.103 41.655L127.384 41.7603L127.385 41.7575L127.103 41.655ZM127.103 43.86L126.821 43.9625L126.822 43.9653L127.103 43.86ZM127.598 44.685L127.376 44.8875L127.386 44.8971L127.598 44.685ZM128.348 45.195L128.23 45.4708L128.233 45.4722L128.348 45.195ZM129.278 47.94C128.46 47.94 127.706 47.8102 127.012 47.5536L126.804 48.1164C127.57 48.3998 128.396 48.54 129.278 48.54V47.94ZM127.013 47.5541C126.327 47.2968 125.736 46.9366 125.237 46.4747L124.829 46.9153C125.39 47.4334 126.049 47.8332 126.803 48.1159L127.013 47.5541ZM125.239 46.4768C124.738 46.0041 124.346 45.4516 124.062 44.8174L123.514 45.0626C123.83 45.7684 124.268 46.3859 124.827 46.9132L125.239 46.4768ZM124.063 44.8208C123.791 44.1915 123.653 43.5024 123.653 42.75H123.053C123.053 43.5776 123.205 44.3485 123.513 45.0592L124.063 44.8208ZM123.653 42.75C123.653 41.987 123.791 41.2987 124.063 40.6807L123.513 40.4393C123.205 41.1413 123.053 41.913 123.053 42.75H123.653ZM124.062 40.6826C124.346 40.0489 124.737 39.5023 125.237 39.0403L124.829 38.5997C124.269 39.1177 123.83 39.7311 123.514 40.4374L124.062 40.6826ZM125.239 39.0382C125.738 38.5671 126.329 38.2027 127.013 37.9459L126.803 37.3841C126.047 37.6673 125.388 38.0729 124.827 38.6018L125.239 39.0382ZM127.012 37.9464C127.706 37.6898 128.46 37.56 129.278 37.56V36.96C128.396 36.96 127.57 37.1002 126.804 37.3836L127.012 37.9464ZM129.278 37.56C130.106 37.56 130.86 37.6899 131.543 37.9459L131.753 37.3841C130.996 37.1001 130.17 36.96 129.278 36.96V37.56ZM131.543 37.9459C132.227 38.2027 132.818 38.5671 133.317 39.0382L133.729 38.6018C133.168 38.0729 132.509 37.6673 131.753 37.3841L131.543 37.9459ZM133.319 39.0403C133.818 39.5016 134.204 40.047 134.478 40.6792L135.028 40.4408C134.722 39.733 134.288 39.1184 133.727 38.5997L133.319 39.0403ZM134.48 40.6841C134.76 41.3013 134.903 41.9884 134.903 42.75H135.503C135.503 41.9116 135.346 41.1387 135.026 40.4359L134.48 40.6841ZM134.903 42.75C134.903 43.501 134.761 44.1888 134.479 44.8174L135.027 45.0626C135.345 44.3512 135.503 43.579 135.503 42.75H134.903ZM134.478 44.8208C134.204 45.4535 133.817 46.0048 133.317 46.4768L133.729 46.9132C134.289 46.3852 134.722 45.7665 135.028 45.0592L134.478 44.8208ZM133.319 46.4747C132.82 46.9366 132.229 47.2968 131.543 47.5541L131.753 48.1159C132.507 47.8332 133.166 47.4334 133.727 46.9153L133.319 46.4747ZM131.543 47.5541C130.86 47.8101 130.106 47.94 129.278 47.94V48.54C130.17 48.54 130.996 48.3999 131.753 48.1159L131.543 47.5541ZM129.278 45.675C129.645 45.675 129.991 45.608 130.311 45.4707L130.075 44.9193C129.835 45.022 129.571 45.075 129.278 45.075V45.675ZM130.308 45.4722C130.635 45.3368 130.92 45.1433 131.16 44.8921L130.726 44.4779C130.546 44.6667 130.331 44.8132 130.078 44.9178L130.308 45.4722ZM131.16 44.8924C131.41 44.6309 131.601 44.3205 131.734 43.9653L131.172 43.7547C131.065 44.0395 130.916 44.2791 130.726 44.4776L131.16 44.8924ZM131.735 43.9625C131.869 43.5947 131.933 43.1892 131.933 42.75H131.333C131.333 43.1308 131.277 43.4653 131.171 43.7575L131.735 43.9625ZM131.933 42.75C131.933 42.311 131.869 41.9093 131.734 41.5497L131.172 41.7603C131.277 42.0407 131.333 42.369 131.333 42.75H131.933ZM131.735 41.5525C131.602 41.1866 131.41 40.8726 131.155 40.6179L130.731 41.0421C130.916 41.2274 131.064 41.4634 131.171 41.7575L131.735 41.5525ZM131.165 40.6277C130.925 40.3649 130.638 40.1645 130.308 40.0278L130.078 40.5822C130.328 40.6855 130.541 40.8351 130.721 41.0323L131.165 40.6277ZM130.311 40.0293C129.991 39.892 129.645 39.825 129.278 39.825V40.425C129.571 40.425 129.835 40.478 130.075 40.5807L130.311 40.0293ZM129.278 39.825C128.911 39.825 128.561 39.892 128.233 40.0278L128.463 40.5822C128.714 40.478 128.985 40.425 129.278 40.425V39.825ZM128.23 40.0293C127.911 40.1659 127.628 40.3648 127.381 40.6226L127.815 41.0374C128.008 40.8352 128.225 40.6841 128.466 40.5807L128.23 40.0293ZM127.381 40.6229C127.138 40.8772 126.953 41.1895 126.821 41.5525L127.385 41.7575C127.493 41.4605 127.638 41.2228 127.815 41.0371L127.381 40.6229ZM126.822 41.5497C126.687 41.9093 126.623 42.311 126.623 42.75H127.223C127.223 42.369 127.279 42.0407 127.384 41.7603L126.822 41.5497ZM126.623 42.75C126.623 43.1892 126.687 43.5947 126.821 43.9625L127.385 43.7575C127.279 43.4653 127.223 43.1308 127.223 42.75H126.623ZM126.822 43.9653C126.954 44.3176 127.138 44.6264 127.376 44.8873L127.82 44.4827C127.638 44.2836 127.492 44.0424 127.384 43.7547L126.822 43.9653ZM127.386 44.8971C127.632 45.1435 127.914 45.3354 128.23 45.4707L128.466 44.9193C128.222 44.8146 128.004 44.6665 127.81 44.4729L127.386 44.8971ZM128.233 45.4722C128.561 45.608 128.911 45.675 129.278 45.675V45.075C128.985 45.075 128.714 45.022 128.463 44.9178L128.233 45.4722ZM136.488 48H136.188V48.3H136.488V48ZM136.488 37.5V37.2H136.188V37.5H136.488ZM140.028 37.5H140.328V37.2H140.028V37.5ZM140.028 45.255H139.728V45.555H140.028V45.255ZM144.768 45.255H145.068V44.955H144.768V45.255ZM144.768 48V48.3H145.068V48H144.768ZM136.788 48V37.5H136.188V48H136.788ZM136.488 37.8H140.028V37.2H136.488V37.8ZM139.728 37.5V45.255H140.328V37.5H139.728ZM140.028 45.555H144.768V44.955H140.028V45.555ZM144.468 45.255V48H145.068V45.255H144.468ZM144.768 47.7H136.488V48.3H144.768V47.7ZM148.372 48L148.095 48.1168L148.173 48.3H148.372V48ZM143.932 37.5V37.2H143.479L143.655 37.6168L143.932 37.5ZM147.742 37.5L148.02 37.3867L147.943 37.2H147.742V37.5ZM151.357 46.365V46.665H151.803L151.635 46.2517L151.357 46.365ZM149.092 46.365L148.815 46.2489L148.641 46.665H149.092V46.365ZM152.812 37.5V37.2H152.612L152.535 37.3839L152.812 37.5ZM156.292 37.5L156.568 37.6168L156.744 37.2H156.292V37.5ZM151.852 48V48.3H152.051L152.128 48.1168L151.852 48ZM148.648 47.8832L144.208 37.3832L143.655 37.6168L148.095 48.1168L148.648 47.8832ZM143.932 37.8H147.742V37.2H143.932V37.8ZM147.464 37.6133L151.079 46.4783L151.635 46.2517L148.02 37.3867L147.464 37.6133ZM151.357 46.065H149.092V46.665H151.357V46.065ZM149.368 46.4811L153.088 37.6161L152.535 37.3839L148.815 46.2489L149.368 46.4811ZM152.812 37.8H156.292V37.2H152.812V37.8ZM156.015 37.3832L151.575 47.8832L152.128 48.1168L156.568 37.6168L156.015 37.3832ZM151.852 47.7H148.372V48.3H151.852V47.7ZM156.644 48H156.344V48.3H156.644V48ZM156.644 37.5V37.2H156.344V37.5H156.644ZM160.184 37.5H160.484V37.2H160.184V37.5ZM160.184 48V48.3H160.484V48H160.184ZM156.944 48V37.5H156.344V48H156.944ZM156.644 37.8H160.184V37.2H156.644V37.8ZM159.884 37.5V48H160.484V37.5H159.884ZM160.184 47.7H156.644V48.3H160.184V47.7ZM161.888 48H161.588V48.3H161.888V48ZM161.888 37.5V37.2H161.588V37.5H161.888ZM164.798 37.5L165.054 37.3433L164.966 37.2H164.798V37.5ZM168.998 44.355V44.655H169.534L169.254 44.1983L168.998 44.355ZM167.468 44.355L167.21 44.2016L166.941 44.655H167.468V44.355ZM171.548 37.5V37.2H171.378L171.29 37.3466L171.548 37.5ZM174.458 37.5L174.758 37.4991L174.757 37.2H174.458V37.5ZM174.488 48V48.3H174.789L174.788 47.9991L174.488 48ZM171.263 48L170.963 48.0016L170.965 48.3H171.263V48ZM171.233 42.36V42.06H170.932L170.933 42.3616L171.233 42.36ZM171.743 42.36L172.001 42.5133L172.27 42.06H171.743V42.36ZM168.953 47.055V47.355H169.124L169.211 47.2083L168.953 47.055ZM167.393 47.055L167.138 47.213L167.226 47.355H167.393V47.055ZM164.483 42.36V42.06H163.944L164.228 42.518L164.483 42.36ZM165.113 42.36H165.413V42.06H165.113V42.36ZM165.113 48V48.3H165.413V48H165.113ZM162.188 48V37.5H161.588V48H162.188ZM161.888 37.8H164.798V37.2H161.888V37.8ZM164.542 37.6567L168.742 44.5117L169.254 44.1983L165.054 37.3433L164.542 37.6567ZM168.998 44.055H167.468V44.655H168.998V44.055ZM167.726 44.5084L171.806 37.6534L171.29 37.3466L167.21 44.2016L167.726 44.5084ZM171.548 37.8H174.458V37.2H171.548V37.8ZM174.158 37.5009L174.188 48.0009L174.788 47.9991L174.758 37.4991L174.158 37.5009ZM174.488 47.7H171.263V48.3H174.488V47.7ZM171.563 47.9984L171.533 42.3584L170.933 42.3616L170.963 48.0016L171.563 47.9984ZM171.233 42.66H171.743V42.06H171.233V42.66ZM171.485 42.2067L168.695 46.9017L169.211 47.2083L172.001 42.5133L171.485 42.2067ZM168.953 46.755H167.393V47.355H168.953V46.755ZM167.648 46.897L164.738 42.202L164.228 42.518L167.138 47.213L167.648 46.897ZM164.483 42.66H165.113V42.06H164.483V42.66ZM164.813 42.36V48H165.413V42.36H164.813ZM165.113 47.7H161.888V48.3H165.113V47.7ZM179.44 41.4V41.1H179.14V41.4H179.44ZM184.12 41.4H184.42V41.1H184.12V41.4ZM184.12 43.95V44.25H184.42V43.95H184.12ZM179.44 43.95H179.14V44.25H179.44V43.95ZM179.68 45.33H179.38V45.63H179.68V45.33ZM184.93 45.33H185.23V45.03H184.93V45.33ZM184.93 48V48.3H185.23V48H184.93ZM176.2 48H175.9V48.3H176.2V48ZM176.2 37.5V37.2H175.9V37.5H176.2ZM184.735 37.5H185.035V37.2H184.735V37.5ZM184.735 40.17V40.47H185.035V40.17H184.735ZM179.68 40.17V39.87H179.38V40.17H179.68ZM179.44 41.7H184.12V41.1H179.44V41.7ZM183.82 41.4V43.95H184.42V41.4H183.82ZM184.12 43.65H179.44V44.25H184.12V43.65ZM179.74 43.95V41.4H179.14V43.95H179.74ZM179.68 45.63H184.93V45.03H179.68V45.63ZM184.63 45.33V48H185.23V45.33H184.63ZM184.93 47.7H176.2V48.3H184.93V47.7ZM176.5 48V37.5H175.9V48H176.5ZM176.2 37.8H184.735V37.2H176.2V37.8ZM184.435 37.5V40.17H185.035V37.5H184.435ZM184.735 39.87H179.68V40.47H184.735V39.87ZM179.38 40.17V45.33H179.98V40.17H179.38ZM186.293 48H185.993V48.3H186.293V48ZM186.293 37.5V37.2H185.993V37.5H186.293ZM189.203 37.5L189.433 37.3076L189.343 37.2H189.203V37.5ZM194.543 43.89V44.19H195.184L194.773 43.6976L194.543 43.89ZM193.193 43.89H192.893V44.19H193.193V43.89ZM193.193 37.5V37.2H192.893V37.5H193.193ZM196.643 37.5H196.943V37.2H196.643V37.5ZM196.643 48V48.3H196.943V48H196.643ZM193.733 48L193.502 48.1924L193.592 48.3H193.733V48ZM188.393 41.61V41.31H187.751L188.162 41.8024L188.393 41.61ZM189.743 41.61H190.043V41.31H189.743V41.61ZM189.743 48V48.3H190.043V48H189.743ZM186.593 48V37.5H185.993V48H186.593ZM186.293 37.8H189.203V37.2H186.293V37.8ZM188.972 37.6924L194.312 44.0824L194.773 43.6976L189.433 37.3076L188.972 37.6924ZM194.543 43.59H193.193V44.19H194.543V43.59ZM193.493 43.89V37.5H192.893V43.89H193.493ZM193.193 37.8H196.643V37.2H193.193V37.8ZM196.343 37.5V48H196.943V37.5H196.343ZM196.643 47.7H193.733V48.3H196.643V47.7ZM193.963 47.8076L188.623 41.4176L188.162 41.8024L193.502 48.1924L193.963 47.8076ZM188.393 41.91H189.743V41.31H188.393V41.91ZM189.442 41.61V48H190.043V41.61H189.442ZM189.743 47.7H186.293V48.3H189.743V47.7ZM200.628 48H200.328V48.3H200.628V48ZM200.628 40.245H200.928V39.945H200.628V40.245ZM197.553 40.245H197.253V40.545H197.553V40.245ZM197.553 37.5V37.2H197.253V37.5H197.553ZM207.243 37.5H207.543V37.2H207.243V37.5ZM207.243 40.245V40.545H207.543V40.245H207.243ZM204.168 40.245V39.945H203.868V40.245H204.168ZM204.168 48V48.3H204.468V48H204.168ZM200.928 48V40.245H200.328V48H200.928ZM200.628 39.945H197.553V40.545H200.628V39.945ZM197.853 40.245V37.5H197.253V40.245H197.853ZM197.553 37.8H207.243V37.2H197.553V37.8ZM206.943 37.5V40.245H207.543V37.5H206.943ZM207.243 39.945H204.168V40.545H207.243V39.945ZM203.868 40.245V48H204.468V40.245H203.868ZM204.168 47.7H200.628V48.3H204.168V47.7ZM211.151 47.835L211.046 48.1159L211.047 48.1164L211.151 47.835ZM209.276 46.695L209.07 46.9132L209.072 46.9153L209.276 46.695ZM208.031 44.94L207.756 45.0592L207.757 45.0626L208.031 44.94ZM208.031 40.56L207.757 40.4374L207.756 40.4393L208.031 40.56ZM209.276 38.82L209.48 39.0403L209.482 39.0382L209.276 38.82ZM211.151 37.665L211.047 37.3836L211.046 37.3841L211.151 37.665ZM215.891 37.665L215.786 37.9459L215.786 37.9459L215.891 37.665ZM217.766 38.82L217.56 39.0382L217.562 39.0403L217.766 38.82ZM218.996 40.56L218.721 40.6792L218.723 40.6841L218.996 40.56ZM218.996 44.94L218.722 44.8174L218.721 44.8208L218.996 44.94ZM217.766 46.695L217.97 46.9153L217.972 46.9132L217.766 46.695ZM215.891 47.835L215.786 47.5541L215.786 47.5541L215.891 47.835ZM214.436 45.195L214.321 44.9178L214.318 44.9193L214.436 45.195ZM215.186 44.685L214.969 44.4776L214.969 44.4779L215.186 44.685ZM215.696 43.86L215.977 43.9653L215.978 43.9625L215.696 43.86ZM215.696 41.655L215.414 41.7575L215.415 41.7603L215.696 41.655ZM215.186 40.83L214.964 41.0325L214.974 41.0421L215.186 40.83ZM214.436 40.305L214.318 40.5808L214.321 40.5822L214.436 40.305ZM212.591 40.305L212.476 40.0278L212.473 40.0293L212.591 40.305ZM211.841 40.83L211.624 40.6226L211.624 40.6229L211.841 40.83ZM211.346 41.655L211.627 41.7603L211.628 41.7575L211.346 41.655ZM211.346 43.86L211.064 43.9625L211.065 43.9653L211.346 43.86ZM211.841 44.685L211.619 44.8875L211.629 44.8971L211.841 44.685ZM212.591 45.195L212.473 45.4708L212.476 45.4722L212.591 45.195ZM213.521 47.94C212.703 47.94 211.949 47.8102 211.255 47.5536L211.047 48.1164C211.813 48.3998 212.639 48.54 213.521 48.54V47.94ZM211.256 47.5541C210.57 47.2968 209.979 46.9366 209.48 46.4747L209.072 46.9153C209.633 47.4334 210.292 47.8332 211.046 48.1159L211.256 47.5541ZM209.482 46.4768C208.981 46.0041 208.589 45.4516 208.305 44.8174L207.757 45.0626C208.073 45.7684 208.511 46.3859 209.07 46.9132L209.482 46.4768ZM208.306 44.8208C208.034 44.1915 207.896 43.5024 207.896 42.75H207.296C207.296 43.5776 207.448 44.3485 207.756 45.0592L208.306 44.8208ZM207.896 42.75C207.896 41.987 208.034 41.2987 208.306 40.6807L207.756 40.4393C207.448 41.1413 207.296 41.913 207.296 42.75H207.896ZM208.305 40.6826C208.589 40.0489 208.98 39.5023 209.48 39.0403L209.072 38.5997C208.512 39.1177 208.074 39.7311 207.757 40.4374L208.305 40.6826ZM209.482 39.0382C209.981 38.5671 210.572 38.2027 211.256 37.9459L211.046 37.3841C210.291 37.6673 209.631 38.0729 209.07 38.6018L209.482 39.0382ZM211.255 37.9464C211.949 37.6898 212.703 37.56 213.521 37.56V36.96C212.639 36.96 211.813 37.1002 211.047 37.3836L211.255 37.9464ZM213.521 37.56C214.349 37.56 215.103 37.6899 215.786 37.9459L215.996 37.3841C215.239 37.1001 214.413 36.96 213.521 36.96V37.56ZM215.786 37.9459C216.471 38.2027 217.061 38.5671 217.56 39.0382L217.972 38.6018C217.411 38.0729 216.752 37.6673 215.996 37.3841L215.786 37.9459ZM217.562 39.0403C218.061 39.5016 218.447 40.047 218.721 40.6792L219.271 40.4408C218.965 39.733 218.531 39.1184 217.97 38.5997L217.562 39.0403ZM218.723 40.6841C219.004 41.3013 219.146 41.9884 219.146 42.75H219.746C219.746 41.9116 219.589 41.1387 219.269 40.4359L218.723 40.6841ZM219.146 42.75C219.146 43.501 219.004 44.1888 218.722 44.8174L219.27 45.0626C219.588 44.3512 219.746 43.579 219.746 42.75H219.146ZM218.721 44.8208C218.447 45.4535 218.061 46.0048 217.56 46.4768L217.972 46.9132C218.532 46.3852 218.965 45.7665 219.271 45.0592L218.721 44.8208ZM217.562 46.4747C217.063 46.9366 216.472 47.2968 215.786 47.5541L215.996 48.1159C216.75 47.8332 217.409 47.4334 217.97 46.9153L217.562 46.4747ZM215.786 47.5541C215.103 47.8101 214.349 47.94 213.521 47.94V48.54C214.413 48.54 215.239 48.3999 215.996 48.1159L215.786 47.5541ZM213.521 45.675C213.888 45.675 214.234 45.608 214.554 45.4707L214.318 44.9193C214.078 45.022 213.814 45.075 213.521 45.075V45.675ZM214.551 45.4722C214.878 45.3368 215.163 45.1433 215.403 44.8921L214.969 44.4779C214.789 44.6667 214.574 44.8132 214.321 44.9178L214.551 45.4722ZM215.403 44.8924C215.653 44.6309 215.844 44.3205 215.977 43.9653L215.415 43.7547C215.308 44.0395 215.159 44.2791 214.969 44.4776L215.403 44.8924ZM215.978 43.9625C216.112 43.5947 216.176 43.1892 216.176 42.75H215.576C215.576 43.1308 215.52 43.4653 215.414 43.7575L215.978 43.9625ZM216.176 42.75C216.176 42.311 216.112 41.9093 215.977 41.5497L215.415 41.7603C215.52 42.0407 215.576 42.369 215.576 42.75H216.176ZM215.978 41.5525C215.845 41.1866 215.653 40.8726 215.398 40.6179L214.974 41.0421C215.159 41.2274 215.307 41.4634 215.414 41.7575L215.978 41.5525ZM215.408 40.6277C215.168 40.3649 214.881 40.1645 214.551 40.0278L214.321 40.5822C214.571 40.6855 214.785 40.8351 214.965 41.0323L215.408 40.6277ZM214.554 40.0293C214.234 39.892 213.888 39.825 213.521 39.825V40.425C213.814 40.425 214.078 40.478 214.318 40.5807L214.554 40.0293ZM213.521 39.825C213.154 39.825 212.805 39.892 212.476 40.0278L212.706 40.5822C212.958 40.478 213.228 40.425 213.521 40.425V39.825ZM212.473 40.0293C212.154 40.1659 211.871 40.3648 211.624 40.6226L212.058 41.0374C212.251 40.8352 212.468 40.6841 212.709 40.5807L212.473 40.0293ZM211.624 40.6229C211.381 40.8772 211.196 41.1895 211.064 41.5525L211.628 41.7575C211.736 41.4605 211.881 41.2228 212.058 41.0371L211.624 40.6229ZM211.065 41.5497C210.93 41.9093 210.866 42.311 210.866 42.75H211.466C211.466 42.369 211.522 42.0407 211.627 41.7603L211.065 41.5497ZM210.866 42.75C210.866 43.1892 210.93 43.5947 211.064 43.9625L211.628 43.7575C211.522 43.4653 211.466 43.1308 211.466 42.75H210.866ZM211.065 43.9653C211.197 44.3176 211.381 44.6264 211.62 44.8873L212.063 44.4827C211.881 44.2836 211.735 44.0424 211.627 43.7547L211.065 43.9653ZM211.629 44.8971C211.875 45.1435 212.157 45.3354 212.473 45.4707L212.709 44.9193C212.465 44.8146 212.247 44.6665 212.053 44.4729L211.629 44.8971ZM212.476 45.4722C212.805 45.608 213.154 45.675 213.521 45.675V45.075C213.228 45.075 212.958 45.022 212.706 44.9178L212.476 45.4722Z" fill="#08405D"/>
<path d="M61.792 32.168C61.104 32.168 60.44 32.084 59.8 31.916C59.168 31.74 58.652 31.516 58.252 31.244L59.032 29.492C59.408 29.732 59.84 29.932 60.328 30.092C60.824 30.244 61.316 30.32 61.804 30.32C62.132 30.32 62.396 30.292 62.596 30.236C62.796 30.172 62.94 30.092 63.028 29.996C63.124 29.892 63.172 29.772 63.172 29.636C63.172 29.444 63.084 29.292 62.908 29.18C62.732 29.068 62.504 28.976 62.224 28.904C61.944 28.832 61.632 28.76 61.288 28.688C60.952 28.616 60.612 28.524 60.268 28.412C59.932 28.3 59.624 28.156 59.344 27.98C59.064 27.796 58.836 27.56 58.66 27.272C58.484 26.976 58.396 26.604 58.396 26.156C58.396 25.652 58.532 25.196 58.804 24.788C59.084 24.38 59.5 24.052 60.052 23.804C60.604 23.556 61.292 23.432 62.116 23.432C62.668 23.432 63.208 23.496 63.736 23.624C64.272 23.744 64.748 23.924 65.164 24.164L64.432 25.928C64.032 25.712 63.636 25.552 63.244 25.448C62.852 25.336 62.472 25.28 62.104 25.28C61.776 25.28 61.512 25.316 61.312 25.388C61.112 25.452 60.968 25.54 60.88 25.652C60.792 25.764 60.748 25.892 60.748 26.036C60.748 26.22 60.832 26.368 61 26.48C61.176 26.584 61.404 26.672 61.684 26.744C61.972 26.808 62.284 26.876 62.62 26.948C62.964 27.02 63.304 27.112 63.64 27.224C63.984 27.328 64.296 27.472 64.576 27.656C64.856 27.832 65.08 28.068 65.248 28.364C65.424 28.652 65.512 29.016 65.512 29.456C65.512 29.944 65.372 30.396 65.092 30.812C64.82 31.22 64.408 31.548 63.856 31.796C63.312 32.044 62.624 32.168 61.792 32.168ZM66.6095 32V23.6H68.9855V32H66.6095ZM73.6279 32.168C72.9399 32.168 72.2759 32.084 71.6359 31.916C71.0039 31.74 70.4879 31.516 70.0879 31.244L70.8679 29.492C71.2439 29.732 71.6759 29.932 72.1639 30.092C72.6599 30.244 73.1519 30.32 73.6399 30.32C73.9679 30.32 74.2319 30.292 74.4319 30.236C74.6319 30.172 74.7759 30.092 74.8639 29.996C74.9599 29.892 75.0079 29.772 75.0079 29.636C75.0079 29.444 74.9199 29.292 74.7439 29.18C74.5679 29.068 74.3399 28.976 74.0599 28.904C73.7799 28.832 73.4679 28.76 73.1239 28.688C72.7879 28.616 72.4479 28.524 72.1039 28.412C71.7679 28.3 71.4599 28.156 71.1799 27.98C70.8999 27.796 70.6719 27.56 70.4959 27.272C70.3199 26.976 70.2319 26.604 70.2319 26.156C70.2319 25.652 70.3679 25.196 70.6399 24.788C70.9199 24.38 71.3359 24.052 71.8879 23.804C72.4399 23.556 73.1279 23.432 73.9519 23.432C74.5039 23.432 75.0439 23.496 75.5719 23.624C76.1079 23.744 76.5839 23.924 76.9999 24.164L76.2679 25.928C75.8679 25.712 75.4719 25.552 75.0799 25.448C74.6879 25.336 74.3079 25.28 73.9399 25.28C73.6119 25.28 73.3479 25.316 73.1479 25.388C72.9479 25.452 72.8039 25.54 72.7159 25.652C72.6279 25.764 72.5839 25.892 72.5839 26.036C72.5839 26.22 72.6679 26.368 72.8359 26.48C73.0119 26.584 73.2399 26.672 73.5199 26.744C73.8079 26.808 74.1199 26.876 74.4559 26.948C74.7999 27.02 75.1399 27.112 75.4759 27.224C75.8199 27.328 76.1319 27.472 76.4119 27.656C76.6919 27.832 76.9159 28.068 77.0839 28.364C77.2599 28.652 77.3479 29.016 77.3479 29.456C77.3479 29.944 77.2079 30.396 76.9279 30.812C76.6559 31.22 76.2439 31.548 75.6919 31.796C75.1479 32.044 74.4599 32.168 73.6279 32.168ZM81.9377 32V23.6H84.3137V30.116H88.3217V32H81.9377ZM91.4459 26.852H95.3459V28.628H91.4459V26.852ZM91.6139 30.164H96.0059V32H89.2619V23.6H95.8499V25.436H91.6139V30.164ZM101.524 32.168C100.86 32.168 100.244 32.064 99.6764 31.856C99.1084 31.64 98.6164 31.336 98.2004 30.944C97.7924 30.552 97.4724 30.092 97.2404 29.564C97.0084 29.028 96.8924 28.44 96.8924 27.8C96.8924 27.16 97.0084 26.576 97.2404 26.048C97.4724 25.512 97.7964 25.048 98.2124 24.656C98.6284 24.264 99.1204 23.964 99.6884 23.756C100.264 23.54 100.892 23.432 101.572 23.432C102.364 23.432 103.072 23.564 103.696 23.828C104.32 24.092 104.836 24.472 105.244 24.968L103.732 26.336C103.444 26.024 103.132 25.792 102.796 25.64C102.468 25.48 102.1 25.4 101.692 25.4C101.332 25.4 101.004 25.456 100.708 25.568C100.412 25.68 100.16 25.844 99.9524 26.06C99.7444 26.268 99.5804 26.52 99.4604 26.816C99.3484 27.104 99.2924 27.432 99.2924 27.8C99.2924 28.152 99.3484 28.476 99.4604 28.772C99.5804 29.068 99.7444 29.324 99.9524 29.54C100.16 29.748 100.408 29.912 100.696 30.032C100.992 30.144 101.316 30.2 101.668 30.2C102.02 30.2 102.364 30.144 102.7 30.032C103.036 29.912 103.376 29.712 103.72 29.432L105.052 31.1C104.572 31.444 104.016 31.708 103.384 31.892C102.752 32.076 102.132 32.168 101.524 32.168ZM102.952 30.788V27.62H105.052V31.1L102.952 30.788ZM106.559 32V23.6H108.935V32H106.559ZM113.577 32.168C112.889 32.168 112.225 32.084 111.585 31.916C110.953 31.74 110.437 31.516 110.037 31.244L110.817 29.492C111.193 29.732 111.625 29.932 112.113 30.092C112.609 30.244 113.101 30.32 113.589 30.32C113.917 30.32 114.181 30.292 114.381 30.236C114.581 30.172 114.725 30.092 114.813 29.996C114.909 29.892 114.957 29.772 114.957 29.636C114.957 29.444 114.869 29.292 114.693 29.18C114.517 29.068 114.289 28.976 114.009 28.904C113.729 28.832 113.417 28.76 113.073 28.688C112.737 28.616 112.397 28.524 112.053 28.412C111.717 28.3 111.409 28.156 111.129 27.98C110.849 27.796 110.621 27.56 110.445 27.272C110.269 26.976 110.181 26.604 110.181 26.156C110.181 25.652 110.317 25.196 110.589 24.788C110.869 24.38 111.285 24.052 111.837 23.804C112.389 23.556 113.077 23.432 113.901 23.432C114.453 23.432 114.993 23.496 115.521 23.624C116.057 23.744 116.533 23.924 116.949 24.164L116.217 25.928C115.817 25.712 115.421 25.552 115.029 25.448C114.637 25.336 114.257 25.28 113.889 25.28C113.561 25.28 113.297 25.316 113.097 25.388C112.897 25.452 112.753 25.54 112.665 25.652C112.577 25.764 112.533 25.892 112.533 26.036C112.533 26.22 112.617 26.368 112.785 26.48C112.961 26.584 113.189 26.672 113.469 26.744C113.757 26.808 114.069 26.876 114.405 26.948C114.749 27.02 115.089 27.112 115.425 27.224C115.769 27.328 116.081 27.472 116.361 27.656C116.641 27.832 116.865 28.068 117.033 28.364C117.209 28.652 117.297 29.016 117.297 29.456C117.297 29.944 117.157 30.396 116.877 30.812C116.605 31.22 116.193 31.548 115.641 31.796C115.097 32.044 114.409 32.168 113.577 32.168Z" fill="white"/>
<path d="M59.8 31.916L59.7195 32.205L59.7238 32.2062L59.8 31.916ZM58.252 31.244L57.9779 31.122L57.8759 31.3511L58.0833 31.4921L58.252 31.244ZM59.032 29.492L59.1934 29.2391L58.8997 29.0516L58.7579 29.37L59.032 29.492ZM60.328 30.092L60.2345 30.3771L60.2401 30.3788L60.328 30.092ZM62.596 30.236L62.6769 30.5251L62.6874 30.5217L62.596 30.236ZM63.028 29.996L62.8076 29.7925L62.8069 29.7933L63.028 29.996ZM62.908 29.18L62.7469 29.4331L62.7469 29.4331L62.908 29.18ZM62.224 28.904L62.2987 28.6135L62.2987 28.6135L62.224 28.904ZM61.288 28.688L61.2251 28.9813L61.2265 28.9816L61.288 28.688ZM60.268 28.412L60.1731 28.6966L60.1751 28.6973L60.268 28.412ZM59.344 27.98L59.1792 28.2308L59.1843 28.234L59.344 27.98ZM58.66 27.272L58.4021 27.4253L58.404 27.4284L58.66 27.272ZM58.804 24.788L58.5566 24.6182L58.5544 24.6216L58.804 24.788ZM60.052 23.804L59.9291 23.5303L59.9291 23.5303L60.052 23.804ZM63.736 23.624L63.6653 23.9156L63.6705 23.9168L63.736 23.624ZM65.164 24.164L65.4411 24.279L65.542 24.0357L65.3139 23.9041L65.164 24.164ZM64.432 25.928L64.2895 26.192L64.5818 26.3498L64.7091 26.043L64.432 25.928ZM63.244 25.448L63.1616 25.7365L63.1671 25.738L63.244 25.448ZM61.312 25.388L61.4035 25.6739L61.4136 25.6703L61.312 25.388ZM60.88 25.652L60.6441 25.4667L60.6441 25.4667L60.88 25.652ZM61 26.48L60.8336 26.7296L60.8404 26.7341L60.8474 26.7383L61 26.48ZM61.684 26.744L61.6092 27.0347L61.6189 27.0369L61.684 26.744ZM62.62 26.948L62.5571 27.2413L62.5585 27.2416L62.62 26.948ZM63.64 27.224L63.5451 27.5087L63.5532 27.5112L63.64 27.224ZM64.576 27.656L64.4112 27.9068L64.4163 27.91L64.576 27.656ZM65.248 28.364L64.987 28.5122L64.992 28.5204L65.248 28.364ZM65.092 30.812L64.8431 30.6445L64.8424 30.6456L65.092 30.812ZM63.856 31.796L63.7331 31.5223L63.7316 31.523L63.856 31.796ZM61.792 31.868C61.1287 31.868 60.4903 31.787 59.8762 31.6258L59.7238 32.2062C60.3897 32.381 61.0793 32.468 61.792 32.468V31.868ZM59.8805 31.627C59.2695 31.4568 58.786 31.2443 58.4207 30.9959L58.0833 31.4921C58.518 31.7877 59.0665 32.0232 59.7195 32.205L59.8805 31.627ZM58.5261 31.366L59.3061 29.614L58.7579 29.37L57.9779 31.122L58.5261 31.366ZM58.8706 29.7449C59.2707 30.0003 59.7261 30.2104 60.2345 30.3771L60.4215 29.8069C59.9539 29.6536 59.5453 29.4637 59.1934 29.2391L58.8706 29.7449ZM60.2401 30.3788C60.7628 30.539 61.2844 30.62 61.804 30.62V30.02C61.3476 30.02 60.8852 29.949 60.4159 29.8052L60.2401 30.3788ZM61.804 30.62C62.1455 30.62 62.4399 30.5912 62.6769 30.5249L62.5151 29.9471C62.3521 29.9928 62.1185 30.02 61.804 30.02V30.62ZM62.6874 30.5217C62.9098 30.4506 63.1105 30.3499 63.2491 30.1987L62.8069 29.7933C62.7695 29.8341 62.6822 29.8934 62.5046 29.9503L62.6874 30.5217ZM63.2484 30.1995C63.3933 30.0426 63.472 29.8507 63.472 29.636H62.872C62.872 29.6933 62.8547 29.7414 62.8076 29.7925L63.2484 30.1995ZM63.472 29.636C63.472 29.3313 63.3227 29.0883 63.0691 28.9269L62.7469 29.4331C62.8453 29.4957 62.872 29.5567 62.872 29.636H63.472ZM63.0691 28.9269C62.8584 28.7928 62.5984 28.6905 62.2987 28.6135L62.1493 29.1945C62.4096 29.2615 62.6056 29.3432 62.7469 29.4331L63.0691 28.9269ZM62.2987 28.6135C62.0135 28.5401 61.697 28.4671 61.3495 28.3944L61.2265 28.9816C61.567 29.0529 61.8745 29.1239 62.1493 29.1945L62.2987 28.6135ZM61.3509 28.3947C61.0255 28.3249 60.6955 28.2357 60.3609 28.1267L60.1751 28.6973C60.5285 28.8123 60.8785 28.9071 61.2251 28.9813L61.3509 28.3947ZM60.3629 28.1274C60.048 28.0224 59.762 27.8884 59.5037 27.726L59.1843 28.234C59.486 28.4236 59.816 28.5776 60.1731 28.6966L60.3629 28.1274ZM59.5088 27.7293C59.266 27.5698 59.0691 27.3661 58.916 27.1156L58.404 27.4284C58.6029 27.7539 58.862 28.0222 59.1792 28.2307L59.5088 27.7293ZM58.9179 27.1187C58.7766 26.881 58.696 26.5659 58.696 26.156H58.096C58.096 26.6421 58.1914 27.071 58.4021 27.4253L58.9179 27.1187ZM58.696 26.156C58.696 25.7095 58.8154 25.3117 59.0536 24.9544L58.5544 24.6216C58.2486 25.0803 58.096 25.5945 58.096 26.156H58.696ZM59.0514 24.9578C59.2939 24.6043 59.662 24.3081 60.1749 24.0777L59.9291 23.5303C59.338 23.7959 58.8741 24.1557 58.5566 24.6182L59.0514 24.9578ZM60.1749 24.0777C60.677 23.8521 61.3199 23.732 62.116 23.732V23.132C61.2641 23.132 60.531 23.2599 59.9291 23.5303L60.1749 24.0777ZM62.116 23.732C62.6446 23.732 63.1608 23.7933 63.6653 23.9156L63.8067 23.3324C63.2552 23.1987 62.6914 23.132 62.116 23.132V23.732ZM63.6705 23.9168C64.181 24.0311 64.6278 24.201 65.0141 24.4239L65.3139 23.9041C64.8682 23.647 64.363 23.4569 63.8015 23.3312L63.6705 23.9168ZM64.8869 24.049L64.1549 25.813L64.7091 26.043L65.4411 24.279L64.8869 24.049ZM64.5745 25.664C64.1562 25.4381 63.7383 25.2688 63.3209 25.158L63.1671 25.738C63.5337 25.8352 63.9078 25.9859 64.2895 26.192L64.5745 25.664ZM63.3264 25.1595C62.9105 25.0407 62.5027 24.98 62.104 24.98V25.58C62.4413 25.58 62.7935 25.6313 63.1616 25.7365L63.3264 25.1595ZM62.104 24.98C61.7581 24.98 61.4557 25.0174 61.2104 25.1057L61.4136 25.6703C61.5683 25.6146 61.7939 25.58 62.104 25.58V24.98ZM61.2206 25.1023C60.9891 25.1763 60.7829 25.2901 60.6441 25.4667L61.1159 25.8373C61.1531 25.7899 61.2349 25.7277 61.4034 25.6737L61.2206 25.1023ZM60.6441 25.4667C60.5141 25.6321 60.448 25.8256 60.448 26.036H61.048C61.048 25.9584 61.0699 25.8959 61.1159 25.8373L60.6441 25.4667ZM60.448 26.036C60.448 26.3313 60.5917 26.5684 60.8336 26.7296L61.1664 26.2304C61.0723 26.1676 61.048 26.1087 61.048 26.036H60.448ZM60.8474 26.7383C61.0554 26.8612 61.3123 26.9582 61.6093 27.0345L61.7587 26.4535C61.4957 26.3858 61.2966 26.3068 61.1526 26.2217L60.8474 26.7383ZM61.6189 27.0369C61.9078 27.101 62.2205 27.1692 62.5571 27.2413L62.6829 26.6547C62.3475 26.5828 62.0362 26.515 61.7491 26.4511L61.6189 27.0369ZM62.5585 27.2416C62.8912 27.3113 63.22 27.4002 63.5451 27.5086L63.7349 26.9394C63.388 26.8238 63.0368 26.7287 62.6815 26.6544L62.5585 27.2416ZM63.5532 27.5112C63.8716 27.6074 64.157 27.7397 64.4112 27.9067L64.7408 27.4053C64.435 27.2043 64.0964 27.0486 63.7268 26.9368L63.5532 27.5112ZM64.4163 27.91C64.6531 28.0588 64.8428 28.2579 64.9871 28.5121L65.5089 28.2159C65.3172 27.8781 65.0589 27.6052 64.7357 27.402L64.4163 27.91ZM64.992 28.5204C65.1317 28.7491 65.212 29.0548 65.212 29.456H65.812C65.812 28.9772 65.7163 28.5549 65.504 28.2076L64.992 28.5204ZM65.212 29.456C65.212 29.8826 65.0908 30.2765 64.8431 30.6445L65.3409 30.9795C65.6532 30.5155 65.812 30.0054 65.812 29.456H65.212ZM64.8424 30.6456C64.6083 30.9967 64.2456 31.2921 63.7331 31.5223L63.9789 32.0697C64.5704 31.8039 65.0317 31.4433 65.3416 30.9784L64.8424 30.6456ZM63.7316 31.523C63.2388 31.7477 62.5968 31.868 61.792 31.868V32.468C62.6512 32.468 63.3852 32.3403 63.9804 32.069L63.7316 31.523ZM66.6095 32H66.3095V32.3H66.6095V32ZM66.6095 23.6V23.3H66.3095V23.6H66.6095ZM68.9855 23.6H69.2855V23.3H68.9855V23.6ZM68.9855 32V32.3H69.2855V32H68.9855ZM66.9095 32V23.6H66.3095V32H66.9095ZM66.6095 23.9H68.9855V23.3H66.6095V23.9ZM68.6855 23.6V32H69.2855V23.6H68.6855ZM68.9855 31.7H66.6095V32.3H68.9855V31.7ZM71.6359 31.916L71.5554 32.205L71.5598 32.2062L71.6359 31.916ZM70.0879 31.244L69.8139 31.122L69.7119 31.3511L69.9192 31.4921L70.0879 31.244ZM70.8679 29.492L71.0293 29.2391L70.7356 29.0516L70.5939 29.37L70.8679 29.492ZM72.1639 30.092L72.0705 30.3771L72.076 30.3788L72.1639 30.092ZM74.4319 30.236L74.5129 30.5251L74.5234 30.5217L74.4319 30.236ZM74.8639 29.996L74.6435 29.7925L74.6428 29.7933L74.8639 29.996ZM74.7439 29.18L74.5829 29.4331L74.5829 29.4331L74.7439 29.18ZM74.0599 28.904L74.1347 28.6135L74.1347 28.6135L74.0599 28.904ZM73.1239 28.688L73.0611 28.9813L73.0625 28.9816L73.1239 28.688ZM72.1039 28.412L72.0091 28.6966L72.0111 28.6973L72.1039 28.412ZM71.1799 27.98L71.0152 28.2308L71.0203 28.234L71.1799 27.98ZM70.4959 27.272L70.2381 27.4253L70.24 27.4284L70.4959 27.272ZM70.6399 24.788L70.3926 24.6182L70.3903 24.6216L70.6399 24.788ZM71.8879 23.804L71.765 23.5303L71.765 23.5303L71.8879 23.804ZM75.5719 23.624L75.5012 23.9156L75.5064 23.9168L75.5719 23.624ZM76.9999 24.164L77.277 24.279L77.378 24.0357L77.1499 23.9041L76.9999 24.164ZM76.2679 25.928L76.1254 26.192L76.4177 26.3498L76.545 26.043L76.2679 25.928ZM75.0799 25.448L74.9975 25.7365L75.003 25.738L75.0799 25.448ZM73.1479 25.388L73.2394 25.6739L73.2496 25.6703L73.1479 25.388ZM72.7159 25.652L72.48 25.4667L72.48 25.4667L72.7159 25.652ZM72.8359 26.48L72.6695 26.7296L72.6763 26.7341L72.6833 26.7383L72.8359 26.48ZM73.5199 26.744L73.4452 27.0347L73.4549 27.0369L73.5199 26.744ZM74.4559 26.948L74.3931 27.2413L74.3945 27.2416L74.4559 26.948ZM75.4759 27.224L75.381 27.5087L75.3891 27.5112L75.4759 27.224ZM76.4119 27.656L76.2472 27.9068L76.2523 27.91L76.4119 27.656ZM77.0839 28.364L76.8229 28.5122L76.828 28.5204L77.0839 28.364ZM76.9279 30.812L76.6791 30.6445L76.6783 30.6456L76.9279 30.812ZM75.6919 31.796L75.569 31.5223L75.5675 31.523L75.6919 31.796ZM73.6279 31.868C72.9646 31.868 72.3263 31.787 71.7121 31.6258L71.5598 32.2062C72.2256 32.381 72.9153 32.468 73.6279 32.468V31.868ZM71.7164 31.627C71.1054 31.4568 70.622 31.2443 70.2566 30.9959L69.9192 31.4921C70.3539 31.7877 70.9024 32.0232 71.5555 32.205L71.7164 31.627ZM70.362 31.366L71.142 29.614L70.5939 29.37L69.8139 31.122L70.362 31.366ZM70.7065 29.7449C71.1066 30.0003 71.5621 30.2104 72.0705 30.3771L72.2574 29.8069C71.7898 29.6536 71.3812 29.4637 71.0293 29.2391L70.7065 29.7449ZM72.076 30.3788C72.5987 30.539 73.1203 30.62 73.6399 30.62V30.02C73.1836 30.02 72.7212 29.949 72.2518 29.8052L72.076 30.3788ZM73.6399 30.62C73.9814 30.62 74.2759 30.5912 74.5128 30.5249L74.351 29.9471C74.188 29.9928 73.9544 30.02 73.6399 30.02V30.62ZM74.5234 30.5217C74.7457 30.4506 74.9465 30.3499 75.0851 30.1987L74.6428 29.7933C74.6054 29.8341 74.5181 29.8934 74.3405 29.9503L74.5234 30.5217ZM75.0844 30.1995C75.2292 30.0426 75.3079 29.8507 75.3079 29.636H74.7079C74.7079 29.6933 74.6906 29.7414 74.6435 29.7925L75.0844 30.1995ZM75.3079 29.636C75.3079 29.3313 75.1586 29.0883 74.905 28.9269L74.5829 29.4331C74.6813 29.4957 74.7079 29.5567 74.7079 29.636H75.3079ZM74.905 28.9269C74.6943 28.7928 74.4343 28.6905 74.1347 28.6135L73.9852 29.1945C74.2455 29.2615 74.4416 29.3432 74.5829 29.4331L74.905 28.9269ZM74.1347 28.6135C73.8494 28.5401 73.5329 28.4671 73.1854 28.3944L73.0625 28.9816C73.4029 29.0529 73.7104 29.1239 73.9852 29.1945L74.1347 28.6135ZM73.1868 28.3947C72.8615 28.3249 72.5315 28.2357 72.1968 28.1267L72.0111 28.6973C72.3644 28.8123 72.7144 28.9071 73.0611 28.9813L73.1868 28.3947ZM72.1988 28.1274C71.8839 28.0224 71.5979 27.8884 71.3396 27.726L71.0203 28.234C71.322 28.4236 71.6519 28.5776 72.0091 28.6966L72.1988 28.1274ZM71.3447 27.7293C71.102 27.5698 70.905 27.3661 70.7519 27.1156L70.24 27.4284C70.4389 27.7539 70.6979 28.0222 71.0152 28.2307L71.3447 27.7293ZM70.7538 27.1187C70.6125 26.881 70.5319 26.5659 70.5319 26.156H69.9319C69.9319 26.6421 70.0274 27.071 70.2381 27.4253L70.7538 27.1187ZM70.5319 26.156C70.5319 25.7095 70.6514 25.3117 70.8896 24.9544L70.3903 24.6216C70.0845 25.0803 69.9319 25.5945 69.9319 26.156H70.5319ZM70.8873 24.9578C71.1299 24.6043 71.4979 24.3081 72.0109 24.0777L71.765 23.5303C71.174 23.7959 70.71 24.1557 70.3926 24.6182L70.8873 24.9578ZM72.0109 24.0777C72.5129 23.8521 73.1559 23.732 73.9519 23.732V23.132C73.1 23.132 72.367 23.2599 71.765 23.5303L72.0109 24.0777ZM73.9519 23.732C74.4805 23.732 74.9968 23.7933 75.5013 23.9156L75.6426 23.3324C75.0911 23.1987 74.5274 23.132 73.9519 23.132V23.732ZM75.5064 23.9168C76.0169 24.0311 76.4638 24.201 76.85 24.4239L77.1499 23.9041C76.7041 23.647 76.1989 23.4569 75.6375 23.3312L75.5064 23.9168ZM76.7228 24.049L75.9908 25.813L76.545 26.043L77.277 24.279L76.7228 24.049ZM76.4105 25.664C75.9922 25.4381 75.5742 25.2688 75.1569 25.158L75.003 25.738C75.3696 25.8352 75.7437 25.9859 76.1254 26.192L76.4105 25.664ZM75.1624 25.1595C74.7464 25.0407 74.3386 24.98 73.9399 24.98V25.58C74.2772 25.58 74.6295 25.6313 74.9975 25.7365L75.1624 25.1595ZM73.9399 24.98C73.594 24.98 73.2916 25.0174 73.0463 25.1057L73.2496 25.6703C73.4043 25.6146 73.6298 25.58 73.9399 25.58V24.98ZM73.0565 25.1023C72.825 25.1763 72.6188 25.2901 72.48 25.4667L72.9518 25.8373C72.9891 25.7899 73.0709 25.7277 73.2394 25.6737L73.0565 25.1023ZM72.48 25.4667C72.35 25.6321 72.2839 25.8256 72.2839 26.036H72.8839C72.8839 25.9584 72.9059 25.8959 72.9518 25.8373L72.48 25.4667ZM72.2839 26.036C72.2839 26.3313 72.4277 26.5684 72.6695 26.7296L73.0023 26.2304C72.9082 26.1676 72.8839 26.1087 72.8839 26.036H72.2839ZM72.6833 26.7383C72.8914 26.8612 73.1482 26.9582 73.4452 27.0345L73.5946 26.4535C73.3317 26.3858 73.1325 26.3068 72.9886 26.2217L72.6833 26.7383ZM73.4549 27.0369C73.7437 27.101 74.0565 27.1692 74.3931 27.2413L74.5188 26.6547C74.1834 26.5828 73.8722 26.515 73.585 26.4511L73.4549 27.0369ZM74.3945 27.2416C74.7271 27.3113 75.0559 27.4002 75.3811 27.5086L75.5708 26.9394C75.2239 26.8238 74.8728 26.7287 74.5174 26.6544L74.3945 27.2416ZM75.3891 27.5112C75.7075 27.6074 75.993 27.7397 76.2472 27.9067L76.5767 27.4053C76.2709 27.2043 75.9324 27.0486 75.5628 26.9368L75.3891 27.5112ZM76.2523 27.91C76.489 28.0588 76.6788 28.2579 76.823 28.5121L77.3448 28.2159C77.1531 27.8781 76.8948 27.6052 76.5716 27.402L76.2523 27.91ZM76.828 28.5204C76.9677 28.7491 77.0479 29.0548 77.0479 29.456H77.6479C77.6479 28.9772 77.5522 28.5549 77.3399 28.2076L76.828 28.5204ZM77.0479 29.456C77.0479 29.8826 76.9267 30.2765 76.6791 30.6445L77.1768 30.9795C77.4892 30.5155 77.6479 30.0054 77.6479 29.456H77.0479ZM76.6783 30.6456C76.4442 30.9967 76.0816 31.2921 75.569 31.5223L75.8149 32.0697C76.4063 31.8039 76.8677 31.4433 77.1776 30.9784L76.6783 30.6456ZM75.5675 31.523C75.0747 31.7477 74.4327 31.868 73.6279 31.868V32.468C74.4871 32.468 75.2212 32.3403 75.8164 32.069L75.5675 31.523ZM81.9377 32H81.6377V32.3H81.9377V32ZM81.9377 23.6V23.3H81.6377V23.6H81.9377ZM84.3137 23.6H84.6137V23.3H84.3137V23.6ZM84.3137 30.116H84.0137V30.416H84.3137V30.116ZM88.3217 30.116H88.6217V29.816H88.3217V30.116ZM88.3217 32V32.3H88.6217V32H88.3217ZM82.2377 32V23.6H81.6377V32H82.2377ZM81.9377 23.9H84.3137V23.3H81.9377V23.9ZM84.0137 23.6V30.116H84.6137V23.6H84.0137ZM84.3137 30.416H88.3217V29.816H84.3137V30.416ZM88.0217 30.116V32H88.6217V30.116H88.0217ZM88.3217 31.7H81.9377V32.3H88.3217V31.7ZM91.4459 26.852V26.552H91.1459V26.852H91.4459ZM95.3459 26.852H95.6459V26.552H95.3459V26.852ZM95.3459 28.628V28.928H95.6459V28.628H95.3459ZM91.4459 28.628H91.1459V28.928H91.4459V28.628ZM91.6139 30.164H91.3139V30.464H91.6139V30.164ZM96.0059 30.164H96.3059V29.864H96.0059V30.164ZM96.0059 32V32.3H96.3059V32H96.0059ZM89.2619 32H88.9619V32.3H89.2619V32ZM89.2619 23.6V23.3H88.9619V23.6H89.2619ZM95.8499 23.6H96.1499V23.3H95.8499V23.6ZM95.8499 25.436V25.736H96.1499V25.436H95.8499ZM91.6139 25.436V25.136H91.3139V25.436H91.6139ZM91.4459 27.152H95.3459V26.552H91.4459V27.152ZM95.0459 26.852V28.628H95.6459V26.852H95.0459ZM95.3459 28.328H91.4459V28.928H95.3459V28.328ZM91.7459 28.628V26.852H91.1459V28.628H91.7459ZM91.6139 30.464H96.0059V29.864H91.6139V30.464ZM95.7059 30.164V32H96.3059V30.164H95.7059ZM96.0059 31.7H89.2619V32.3H96.0059V31.7ZM89.5619 32V23.6H88.9619V32H89.5619ZM89.2619 23.9H95.8499V23.3H89.2619V23.9ZM95.5499 23.6V25.436H96.1499V23.6H95.5499ZM95.8499 25.136H91.6139V25.736H95.8499V25.136ZM91.3139 25.436V30.164H91.9139V25.436H91.3139ZM99.6764 31.856L99.5697 32.1364L99.5732 32.1377L99.6764 31.856ZM98.2004 30.944L97.9925 31.1603L97.9946 31.1623L98.2004 30.944ZM97.2404 29.564L96.9651 29.6832L96.9657 29.6847L97.2404 29.564ZM97.2404 26.048L97.515 26.1687L97.5157 26.1672L97.2404 26.048ZM98.2124 24.656L98.0066 24.4377L98.0066 24.4377L98.2124 24.656ZM99.6884 23.756L99.7915 24.0377L99.7937 24.0369L99.6884 23.756ZM103.696 23.828L103.813 23.5517L103.813 23.5517L103.696 23.828ZM105.244 24.968L105.446 25.1905L105.658 24.9984L105.476 24.7774L105.244 24.968ZM103.732 26.336L103.512 26.5395L103.713 26.7577L103.934 26.5585L103.732 26.336ZM102.796 25.64L102.665 25.9097L102.673 25.9133L102.796 25.64ZM99.9524 26.06L100.165 26.2722L100.168 26.2681L99.9524 26.06ZM99.4604 26.816L99.1823 26.7033L99.1808 26.7073L99.4604 26.816ZM99.4604 28.772L99.1797 28.8782L99.1824 28.8847L99.4604 28.772ZM99.9524 29.54L99.7362 29.7481L99.7402 29.7521L99.9524 29.54ZM100.696 30.032L100.581 30.3091L100.59 30.3126L100.696 30.032ZM102.7 30.032L102.795 30.3167L102.801 30.3145L102.7 30.032ZM103.72 29.432L103.955 29.2448L103.766 29.0082L103.531 29.1993L103.72 29.432ZM105.052 31.1L105.227 31.3438L105.484 31.1598L105.287 30.9128L105.052 31.1ZM103.384 31.892L103.468 32.18L103.468 32.18L103.384 31.892ZM102.952 30.788H102.652V31.0467L102.908 31.0847L102.952 30.788ZM102.952 27.62V27.32H102.652V27.62H102.952ZM105.052 27.62H105.352V27.32H105.052V27.62ZM105.052 31.1L105.008 31.3967L105.352 31.4479V31.1H105.052ZM101.524 31.868C100.892 31.868 100.311 31.7691 99.7795 31.5743L99.5732 32.1377C100.177 32.3589 100.829 32.468 101.524 32.468V31.868ZM99.783 31.5756C99.2494 31.3727 98.7917 31.089 98.4061 30.7257L97.9946 31.1623C98.4411 31.583 98.9673 31.9073 99.5697 32.1364L99.783 31.5756ZM98.4082 30.7277C98.0291 30.3634 97.7315 29.9361 97.515 29.4433L96.9657 29.6847C97.2132 30.2479 97.5557 30.7406 97.9925 31.1603L98.4082 30.7277ZM97.5157 29.4448C97.3015 28.9499 97.1924 28.403 97.1924 27.8H96.5924C96.5924 28.477 96.7153 29.1061 96.9651 29.6832L97.5157 29.4448ZM97.1924 27.8C97.1924 27.197 97.3015 26.6547 97.515 26.1687L96.9657 25.9273C96.7153 26.4973 96.5924 27.123 96.5924 27.8H97.1924ZM97.5157 26.1672C97.7318 25.6678 98.0325 25.2377 98.4181 24.8743L98.0066 24.4377C97.5603 24.8583 97.2129 25.3562 96.9651 25.9288L97.5157 26.1672ZM98.4181 24.8743C98.8029 24.5118 99.2594 24.2326 99.7915 24.0377L99.5852 23.4743C98.9813 23.6954 98.4539 24.0162 98.0066 24.4377L98.4181 24.8743ZM99.7937 24.0369C100.333 23.8348 100.925 23.732 101.572 23.732V23.132C100.86 23.132 100.196 23.2452 99.583 23.4751L99.7937 24.0369ZM101.572 23.732C102.331 23.732 102.998 23.8584 103.579 24.1043L103.813 23.5517C103.147 23.2696 102.398 23.132 101.572 23.132V23.732ZM103.579 24.1043C104.161 24.3505 104.637 24.7021 105.013 25.1586L105.476 24.7774C105.036 24.2419 104.479 23.8335 103.813 23.5517L103.579 24.1043ZM105.043 24.7455L103.531 26.1135L103.934 26.5585L105.446 25.1905L105.043 24.7455ZM103.953 26.1325C103.642 25.7954 103.298 25.5375 102.92 25.3667L102.673 25.9133C102.967 26.0464 103.247 26.2526 103.512 26.5395L103.953 26.1325ZM102.928 25.3704C102.554 25.1881 102.141 25.1 101.692 25.1V25.7C102.06 25.7 102.382 25.7719 102.665 25.9096L102.928 25.3704ZM101.692 25.1C101.301 25.1 100.936 25.1609 100.602 25.2874L100.815 25.8486C101.072 25.7511 101.364 25.7 101.692 25.7V25.1ZM100.602 25.2874C100.267 25.4142 99.9768 25.6021 99.7363 25.8519L100.168 26.2681C100.344 26.0859 100.558 25.9458 100.815 25.8486L100.602 25.2874ZM99.7402 25.8479C99.5015 26.0866 99.3161 26.3733 99.1824 26.7033L99.7384 26.9287C99.8446 26.6667 99.9873 26.4494 100.165 26.2721L99.7402 25.8479ZM99.1808 26.7073C99.053 27.0359 98.9924 27.4017 98.9924 27.8H99.5924C99.5924 27.4623 99.6438 27.1721 99.74 26.9247L99.1808 26.7073ZM98.9924 27.8C98.9924 28.1842 99.0536 28.5446 99.1798 28.8782L99.741 28.6658C99.6432 28.4074 99.5924 28.1198 99.5924 27.8H98.9924ZM99.1824 28.8847C99.3158 29.2138 99.5001 29.5028 99.7363 29.7481L100.168 29.3319C99.9887 29.1452 99.845 28.9222 99.7384 28.6593L99.1824 28.8847ZM99.7402 29.7521C99.9776 29.9895 100.259 30.1748 100.581 30.3089L100.812 29.7551C100.558 29.6492 100.343 29.5065 100.165 29.3279L99.7402 29.7521ZM100.59 30.3126C100.924 30.4388 101.284 30.5 101.668 30.5V29.9C101.349 29.9 101.061 29.8492 100.803 29.7514L100.59 30.3126ZM101.668 30.5C102.053 30.5 102.429 30.4387 102.795 30.3166L102.606 29.7474C102.3 29.8493 101.988 29.9 101.668 29.9V30.5ZM102.801 30.3145C103.176 30.1807 103.545 29.9612 103.91 29.6647L103.531 29.1993C103.207 29.4628 102.897 29.6433 102.599 29.7495L102.801 30.3145ZM103.486 29.6192L104.818 31.2872L105.287 30.9128L103.955 29.2448L103.486 29.6192ZM104.878 30.8562C104.428 31.1783 103.904 31.4284 103.301 31.604L103.468 32.18C104.129 31.9876 104.717 31.7097 105.227 31.3438L104.878 30.8562ZM103.301 31.604C102.694 31.7807 102.102 31.868 101.524 31.868V32.468C102.163 32.468 102.811 32.3713 103.468 32.18L103.301 31.604ZM103.252 30.788V27.62H102.652V30.788H103.252ZM102.952 27.92H105.052V27.32H102.952V27.92ZM104.752 27.62V31.1H105.352V27.62H104.752ZM105.096 30.8033L102.996 30.4913L102.908 31.0847L105.008 31.3967L105.096 30.8033ZM106.559 32H106.259V32.3H106.559V32ZM106.559 23.6V23.3H106.259V23.6H106.559ZM108.935 23.6H109.235V23.3H108.935V23.6ZM108.935 32V32.3H109.235V32H108.935ZM106.859 32V23.6H106.259V32H106.859ZM106.559 23.9H108.935V23.3H106.559V23.9ZM108.635 23.6V32H109.235V23.6H108.635ZM108.935 31.7H106.559V32.3H108.935V31.7ZM111.585 31.916L111.505 32.205L111.509 32.2062L111.585 31.916ZM110.037 31.244L109.763 31.122L109.661 31.3511L109.868 31.4921L110.037 31.244ZM110.817 29.492L110.979 29.2391L110.685 29.0516L110.543 29.37L110.817 29.492ZM112.113 30.092L112.02 30.3771L112.025 30.3788L112.113 30.092ZM114.381 30.236L114.462 30.5251L114.473 30.5217L114.381 30.236ZM114.813 29.996L114.593 29.7925L114.592 29.7933L114.813 29.996ZM114.693 29.18L114.532 29.4331L114.532 29.4331L114.693 29.18ZM114.009 28.904L114.084 28.6135L114.084 28.6135L114.009 28.904ZM113.073 28.688L113.01 28.9813L113.012 28.9816L113.073 28.688ZM112.053 28.412L111.958 28.6966L111.96 28.6973L112.053 28.412ZM111.129 27.98L110.964 28.2308L110.97 28.234L111.129 27.98ZM110.445 27.272L110.187 27.4253L110.189 27.4284L110.445 27.272ZM110.589 24.788L110.342 24.6182L110.34 24.6216L110.589 24.788ZM111.837 23.804L111.714 23.5303L111.714 23.5303L111.837 23.804ZM115.521 23.624L115.45 23.9156L115.456 23.9168L115.521 23.624ZM116.949 24.164L117.226 24.279L117.327 24.0357L117.099 23.9041L116.949 24.164ZM116.217 25.928L116.075 26.192L116.367 26.3498L116.494 26.043L116.217 25.928ZM115.029 25.448L114.947 25.7365L114.952 25.738L115.029 25.448ZM113.097 25.388L113.189 25.6739L113.199 25.6703L113.097 25.388ZM112.665 25.652L112.429 25.4667L112.429 25.4667L112.665 25.652ZM112.785 26.48L112.619 26.7296L112.626 26.7341L112.633 26.7383L112.785 26.48ZM113.469 26.744L113.394 27.0347L113.404 27.0369L113.469 26.744ZM114.405 26.948L114.342 27.2413L114.344 27.2416L114.405 26.948ZM115.425 27.224L115.33 27.5087L115.338 27.5112L115.425 27.224ZM116.361 27.656L116.196 27.9068L116.202 27.91L116.361 27.656ZM117.033 28.364L116.772 28.5122L116.777 28.5204L117.033 28.364ZM116.877 30.812L116.628 30.6445L116.628 30.6456L116.877 30.812ZM115.641 31.796L115.518 31.5223L115.517 31.523L115.641 31.796ZM113.577 31.868C112.914 31.868 112.275 31.787 111.661 31.6258L111.509 32.2062C112.175 32.381 112.864 32.468 113.577 32.468V31.868ZM111.666 31.627C111.055 31.4568 110.571 31.2443 110.206 30.9959L109.868 31.4921C110.303 31.7877 110.852 32.0232 111.505 32.205L111.666 31.627ZM110.311 31.366L111.091 29.614L110.543 29.37L109.763 31.122L110.311 31.366ZM110.656 29.7449C111.056 30.0003 111.511 30.2104 112.02 30.3771L112.207 29.8069C111.739 29.6536 111.33 29.4637 110.979 29.2391L110.656 29.7449ZM112.025 30.3788C112.548 30.539 113.07 30.62 113.589 30.62V30.02C113.133 30.02 112.67 29.949 112.201 29.8052L112.025 30.3788ZM113.589 30.62C113.931 30.62 114.225 30.5912 114.462 30.5249L114.3 29.9471C114.137 29.9928 113.904 30.02 113.589 30.02V30.62ZM114.473 30.5217C114.695 30.4506 114.896 30.3499 115.034 30.1987L114.592 29.7933C114.555 29.8341 114.467 29.8934 114.29 29.9503L114.473 30.5217ZM115.034 30.1995C115.178 30.0426 115.257 29.8507 115.257 29.636H114.657C114.657 29.6933 114.64 29.7414 114.593 29.7925L115.034 30.1995ZM115.257 29.636C115.257 29.3313 115.108 29.0883 114.854 28.9269L114.532 29.4331C114.631 29.4957 114.657 29.5567 114.657 29.636H115.257ZM114.854 28.9269C114.644 28.7928 114.384 28.6905 114.084 28.6135L113.934 29.1945C114.195 29.2615 114.391 29.3432 114.532 29.4331L114.854 28.9269ZM114.084 28.6135C113.799 28.5401 113.482 28.4671 113.135 28.3944L113.012 28.9816C113.352 29.0529 113.66 29.1239 113.934 29.1945L114.084 28.6135ZM113.136 28.3947C112.811 28.3249 112.481 28.2357 112.146 28.1267L111.96 28.6973C112.314 28.8123 112.664 28.9071 113.01 28.9813L113.136 28.3947ZM112.148 28.1274C111.833 28.0224 111.547 27.8884 111.289 27.726L110.97 28.234C111.271 28.4236 111.601 28.5776 111.958 28.6966L112.148 28.1274ZM111.294 27.7293C111.051 27.5698 110.854 27.3661 110.701 27.1156L110.189 27.4284C110.388 27.7539 110.647 28.0222 110.964 28.2307L111.294 27.7293ZM110.703 27.1187C110.562 26.881 110.481 26.5659 110.481 26.156H109.881C109.881 26.6421 109.977 27.071 110.187 27.4253L110.703 27.1187ZM110.481 26.156C110.481 25.7095 110.601 25.3117 110.839 24.9544L110.34 24.6216C110.034 25.0803 109.881 25.5945 109.881 26.156H110.481ZM110.837 24.9578C111.079 24.6043 111.447 24.3081 111.96 24.0777L111.714 23.5303C111.123 23.7959 110.659 24.1557 110.342 24.6182L110.837 24.9578ZM111.96 24.0777C112.462 23.8521 113.105 23.732 113.901 23.732V23.132C113.049 23.132 112.316 23.2599 111.714 23.5303L111.96 24.0777ZM113.901 23.732C114.43 23.732 114.946 23.7933 115.45 23.9156L115.592 23.3324C115.04 23.1987 114.477 23.132 113.901 23.132V23.732ZM115.456 23.9168C115.966 24.0311 116.413 24.201 116.799 24.4239L117.099 23.9041C116.653 23.647 116.148 23.4569 115.587 23.3312L115.456 23.9168ZM116.672 24.049L115.94 25.813L116.494 26.043L117.226 24.279L116.672 24.049ZM116.36 25.664C115.941 25.4381 115.523 25.2688 115.106 25.158L114.952 25.738C115.319 25.8352 115.693 25.9859 116.075 26.192L116.36 25.664ZM115.112 25.1595C114.696 25.0407 114.288 24.98 113.889 24.98V25.58C114.226 25.58 114.579 25.6313 114.947 25.7365L115.112 25.1595ZM113.889 24.98C113.543 24.98 113.241 25.0174 112.996 25.1057L113.199 25.6703C113.353 25.6146 113.579 25.58 113.889 25.58V24.98ZM113.006 25.1023C112.774 25.1763 112.568 25.2901 112.429 25.4667L112.901 25.8373C112.938 25.7899 113.02 25.7277 113.189 25.6737L113.006 25.1023ZM112.429 25.4667C112.299 25.6321 112.233 25.8256 112.233 26.036H112.833C112.833 25.9584 112.855 25.8959 112.901 25.8373L112.429 25.4667ZM112.233 26.036C112.233 26.3313 112.377 26.5684 112.619 26.7296L112.952 26.2304C112.857 26.1676 112.833 26.1087 112.833 26.036H112.233ZM112.633 26.7383C112.841 26.8612 113.097 26.9582 113.394 27.0345L113.544 26.4535C113.281 26.3858 113.082 26.3068 112.938 26.2217L112.633 26.7383ZM113.404 27.0369C113.693 27.101 114.006 27.1692 114.342 27.2413L114.468 26.6547C114.133 26.5828 113.821 26.515 113.534 26.4511L113.404 27.0369ZM114.344 27.2416C114.676 27.3113 115.005 27.4002 115.33 27.5086L115.52 26.9394C115.173 26.8238 114.822 26.7287 114.467 26.6544L114.344 27.2416ZM115.338 27.5112C115.657 27.6074 115.942 27.7397 116.196 27.9067L116.526 27.4053C116.22 27.2043 115.882 27.0486 115.512 26.9368L115.338 27.5112ZM116.202 27.91C116.438 28.0588 116.628 28.2579 116.772 28.5121L117.294 28.2159C117.102 27.8781 116.844 27.6052 116.521 27.402L116.202 27.91ZM116.777 28.5204C116.917 28.7491 116.997 29.0548 116.997 29.456H117.597C117.597 28.9772 117.501 28.5549 117.289 28.2076L116.777 28.5204ZM116.997 29.456C116.997 29.8826 116.876 30.2765 116.628 30.6445L117.126 30.9795C117.438 30.5155 117.597 30.0054 117.597 29.456H116.997ZM116.628 30.6456C116.393 30.9967 116.031 31.2921 115.518 31.5223L115.764 32.0697C116.356 31.8039 116.817 31.4433 117.127 30.9784L116.628 30.6456ZM115.517 31.523C115.024 31.7477 114.382 31.868 113.577 31.868V32.468C114.436 32.468 115.17 32.3403 115.766 32.069L115.517 31.523Z" fill="#08405D"/>
<path d="M25.0389 47.9987C25.1079 47.9378 25.8687 47.2939 25.9012 47.2354C21.0043 47.0251 18.484 45.7111 17.4821 42.9226C15.7308 38.0656 19.8767 35.7189 24.0575 35.5086C23.756 32.6406 19.6512 29.0197 13.2647 29.1574C6.22072 29.3628 1.03687 34.5674 3.42843 40.9621C5.57125 46.7943 12.7009 49.6289 22.637 50.0185C23.3893 49.3117 24.2218 48.7196 25.0389 47.9987Z" fill="#126D9E" stroke="white" stroke-width="0.5" stroke-miterlimit="10"/>
<path d="M52.2758 39.6211L52.293 39.3555L52.0268 39.3551L50.3603 39.3524L50.168 39.3521L50.1184 39.5379C49.3123 42.5566 48.2781 45.1761 46.9025 47.0362C45.5322 48.889 43.8374 49.9722 41.6922 49.9722H33.0094V19.1439C33.0094 17.2646 33.2447 15.5954 33.9407 14.4023C34.286 13.8106 34.7438 13.3372 35.3451 13.01C35.9475 12.6822 36.7074 12.4938 37.6666 12.4938H37.9166V12.2438V10.5638V10.3138H37.6666H19.0264H18.7764V10.5638V12.2438V12.4938H19.0264C19.9855 12.4938 20.7454 12.6822 21.3478 13.01C21.9491 13.3372 22.407 13.8106 22.7522 14.4023C23.4483 15.5954 23.6835 17.2646 23.6835 19.1439V44.0428C23.6835 45.9214 23.4483 47.5902 22.7522 48.7832C22.407 49.3748 21.9491 49.8482 21.3478 50.1754C20.7455 50.5031 19.9855 50.6915 19.0264 50.6915H18.7764V50.9415V52.5638V52.8138H19.0264H51.1917H51.4261L51.4411 52.5799L52.2758 39.6211Z" fill="#137DC5" stroke="white" stroke-width="0.5" stroke-miterlimit="10"/>
<path d="M18.0697 9.62025L18.0699 9.61683C18.1907 7.59927 19.4726 6.06703 21.4035 5.0814C23.3375 4.09413 25.8988 3.67158 28.4941 3.88179L28.4945 3.88182C32.4864 4.19832 35.3524 5.33819 37.5053 7.44434C39.6647 9.55677 41.1349 12.668 42.2764 16.9851L42.3256 17.1712H42.5181H45.149H45.4258L45.3977 16.8958L43.8761 2.0063L43.8531 1.78171H43.6274H41.9111H41.724L41.6712 1.9612C41.3825 2.94316 41.0199 3.32017 40.5666 3.4368C40.324 3.49922 40.0277 3.49547 39.6549 3.4292C39.2825 3.36301 38.8515 3.23792 38.3453 3.07232C38.0686 2.98181 37.772 2.88004 37.4542 2.77096C35.4482 2.08254 32.5936 1.10289 28.5313 0.824726V0.824712L28.5286 0.824554C24.1832 0.574745 18.7098 0.893789 14.2164 2.68987C9.71114 4.49067 6.16477 7.7917 5.77427 13.4933H5.77427L5.77418 13.4947C5.46976 18.3393 8.06786 21.7873 11.7541 24.4697C15.0038 26.8344 19.1356 28.6307 22.9426 30.2858C23.4432 30.5034 23.9382 30.7186 24.4248 30.9324L24.4271 30.9334C24.859 31.1177 25.2833 31.2981 25.6997 31.4752C29.7158 33.1826 32.9949 34.5768 35.2086 36.183C36.4247 37.0655 37.2992 37.9987 37.7964 39.0638C38.2913 40.1236 38.4231 41.3368 38.1147 42.8017C37.8661 43.905 37.482 44.8248 36.7965 45.6122C36.1096 46.4011 35.1037 47.0759 33.5804 47.659L33.4198 47.7205V47.8925V47.8925V47.8926V47.8927V47.8927V47.8928V47.8929V47.893V47.8931V47.8932V47.8933V47.8935V47.8936V47.8937V47.8938V47.894V47.8941V47.8943V47.8944V47.8946V47.8948V47.895V47.8951V47.8953V47.8955V47.8957V47.8959V47.8961V47.8963V47.8966V47.8968V47.897V47.8973V47.8975V47.8978V47.898V47.8983V47.8985V47.8988V47.8991V47.8993V47.8996V47.8999V47.9002V47.9005V47.9008V47.9011V47.9014V47.9018V47.9021V47.9024V47.9028V47.9031V47.9034V47.9038V47.9041V47.9045V47.9049V47.9052V47.9056V47.906V47.9064V47.9068V47.9072V47.9075V47.908V47.9084V47.9088V47.9092V47.9096V47.91V47.9105V47.9109V47.9113V47.9118V47.9122V47.9127V47.9131V47.9136V47.914V47.9145V47.915V47.9155V47.9159V47.9164V47.9169V47.9174V47.9179V47.9184V47.9189V47.9194V47.9199V47.9204V47.921V47.9215V47.922V47.9226V47.9231V47.9236V47.9242V47.9247V47.9253V47.9258V47.9264V47.927V47.9275V47.9281V47.9287V47.9292V47.9298V47.9304V47.931V47.9316V47.9322V47.9328V47.9334V47.934V47.9346V47.9352V47.9358V47.9364V47.9371V47.9377V47.9383V47.9389V47.9396V47.9402V47.9408V47.9415V47.9421V47.9428V47.9434V47.9441V47.9448V47.9454V47.9461V47.9467V47.9474V47.9481V47.9488V47.9494V47.9501V47.9508V47.9515V47.9522V47.9529V47.9536V47.9543V47.955V47.9557V47.9564V47.9571V47.9578V47.9585V47.9592V47.9599V47.9607V47.9614V47.9621V47.9628V47.9636V47.9643V47.965V47.9658V47.9665V47.9673V47.968V47.9687V47.9695V47.9702V47.971V47.9718V47.9725V47.9733V47.974V47.9748V47.9756V47.9763V47.9771V47.9779V47.9786V47.9794V47.9802V47.9809V47.9817V47.9825V47.9833V47.9841V47.9849V47.9856V47.9864V47.9872V47.988V47.9888V47.9896V47.9904V47.9912V47.992V47.9928V47.9936V47.9944V47.9952V47.996V47.9968V47.9976V47.9984V47.9993V48.0001V48.0009V48.0017V48.0025V48.0033V48.0041V48.005V48.0058V48.0066V48.0074V48.0082V48.0091V48.0099V48.0107V48.0115V48.0124V48.0132V48.014V48.0149V48.0157V48.0165V48.0174V48.0182V48.019V48.0199V48.0207V48.0215V48.0224V48.0232V48.024V48.0249V48.0257V48.0265V48.0274V48.0282V48.0291V48.0299V48.0307V48.0316V48.0324V48.0333V48.0341V48.0349V48.0358V48.0366V48.0375V48.0383V48.0392V48.04V48.0408V48.0417V48.0425V48.0434V48.0442V48.045V48.0459V48.0467V48.0476V48.0484V48.0492V48.0501V48.0509V48.0518V48.0526V48.0534V48.0543V48.0551V48.056V48.0568V48.0576V48.0585V48.0593V48.0601V48.061V48.0618V48.0626V48.0635V48.0643V48.0651V48.066V48.0668V48.0676V48.0685V48.0693V48.0701V48.0709V48.0718V48.0726V48.0734V48.0742V48.0751V48.0759V48.0767V48.0775V48.0783V48.0792V48.08V48.0808V48.0816V48.0824V48.0832V48.084V48.0848V48.0857V48.0865V48.0873V48.0881V48.0889V48.0897V48.0905V48.0913V48.0921V48.0929V48.0936V48.0944V48.0952V48.096V48.0968V48.0976V48.0984V48.0992V48.0999V48.1007V48.1015V48.1023V48.103V48.1038V48.1046V48.1054V48.1061V48.1069V48.1076V48.1084V48.1092V48.1099V48.1107V48.1114V48.1122V48.1129V48.1137V48.1144V48.1151V48.1159V48.1166V48.1174V48.1181V48.1188V48.1195V48.1203V48.121V48.1217V48.1224V48.1231V48.1239V48.1246V48.1253V48.126V48.1267V48.1274V48.1281V48.1288V48.1295V48.1302V48.1309V48.1315V48.1322V48.1329V48.1336V48.1342V48.1349V48.1356V48.1362V48.1369V48.1376V48.1382V48.1389V48.1395V48.1402V48.1408V48.1415V48.1421V48.1427V48.1434V48.144V48.1446V48.1452V48.1459V48.1465V48.1471V48.1477V48.1483V48.1489V48.1495V48.1501V48.1507V48.1513V48.1518V48.1524V48.153V48.1536V48.1541V48.1547V48.1553V48.1558V48.1564V48.1569V48.1575V48.158V48.1586V48.1591V48.1596V48.1602V48.1607V48.1612V48.1617V48.1622V48.1628V48.1633V48.1638V48.1643V48.1648V48.1652V48.1657V48.1662V48.1667V48.1672V48.1676V48.1681V48.1685V48.169V48.1695V48.1699V48.1703V48.1708V48.1712V48.1716V48.1721V48.1725V48.1729V48.1733V48.1737V48.1741V48.1745V48.1749V48.1753V48.1757V48.1761V48.1764V48.1768V48.1772V48.1775V48.1779V48.1782V48.1786V48.1789V48.1792V48.1796V48.1799V48.1802V48.1805V48.1808V48.1811V48.1814V48.1817V48.182V48.1823V48.1826V48.1829V48.1831V48.1834V48.1837V48.1839V48.1842V48.1844V48.1846V48.1849V48.1851V48.1853V48.1855V48.1857V48.186V48.1861V48.1863V48.1865V48.1867V48.1869V48.1871V48.1872V48.1874V48.1875V48.1877V48.1878V48.188V48.1881V48.1882V48.1883V48.1884V48.1886V48.1887V48.1887V48.1888V48.1889V48.189V48.1891V48.1891V48.1892C33.4198 48.2698 33.4194 48.3458 33.4192 48.4164C33.4186 48.5446 33.4182 48.655 33.4198 48.7435C33.4211 48.8128 33.4237 48.8766 33.4294 48.9309C33.4344 48.9774 33.4443 49.0478 33.4758 49.1106L33.545 49.2484H33.6992H33.6998H33.7004H33.701H33.7016H33.7023H33.7031H33.7038H33.7046H33.7054H33.7063H33.7071H33.7081H33.709H33.71H33.711H33.712H33.7131H33.7142H33.7153H33.7164H33.7176H33.7188H33.7201H33.7214H33.7227H33.724H33.7254H33.7268H33.7282H33.7296H33.7311H33.7326H33.7341H33.7357H33.7373H33.7389H33.7406H33.7422H33.7439H33.7457H33.7474H33.7492H33.751H33.7528H33.7547H33.7566H33.7585H33.7605H33.7624H33.7644H33.7664H33.7685H33.7706H33.7727H33.7748H33.777H33.7791H33.7813H33.7836H33.7858H33.7881H33.7904H33.7927H33.7951H33.7974H33.7998H33.8023H33.8047H33.8072H33.8097H33.8122H33.8147H33.8173H33.8199H33.8225H33.8251H33.8278H33.8305H33.8332H33.8359H33.8386H33.8414H33.8442H33.847H33.8498H33.8527H33.8556H33.8585H33.8614H33.8643H33.8673H33.8703H33.8733H33.8763H33.8794H33.8824H33.8855H33.8886H33.8918H33.8949H33.8981H33.9013H33.9045H33.9077H33.9109H33.9142H33.9175H33.9208H33.9241H33.9274H33.9308H33.9342H33.9376H33.941H33.9444H33.9478H33.9513H33.9548H33.9583H33.9618H33.9653H33.9689H33.9725H33.9761H33.9797H33.9833H33.9869H33.9906H33.9942H33.9979H34.0016H34.0053H34.0091H34.0128H34.0166H34.0204H34.0242H34.028H34.0318H34.0356H34.0395H34.0433H34.0472H34.0511H34.055H34.059H34.0629H34.0669H34.0708H34.0748H34.0788H34.0828H34.0868H34.0908H34.0949H34.099H34.103H34.1071H34.1112H34.1153H34.1194H34.1236H34.1277H34.1319H34.136H34.1402H34.1444H34.1486H34.1528H34.157H34.1613H34.1655H34.1698H34.1741H34.1783H34.1826H34.1869H34.1912H34.1955H34.1999H34.2042H34.2086H34.2129H34.2173H34.2217H34.226H34.2304H34.2348H34.2392H34.2437H34.2481H34.2525H34.257H34.2614H34.2659H34.2703H34.2748H34.2793H34.2838H34.2883H34.2928H34.2973H34.3018H34.3063H34.3109H34.3154H34.32H34.3245H34.3291H34.3336H34.3382H34.3428H34.3474H34.3519H34.3565H34.3611H34.3657H34.3703H34.3749H34.3796H34.3842H34.3888H34.3934H34.3981H34.4027H34.4073H34.412H34.4166H34.4213H34.4259H34.4306H34.4353H34.4399H34.4446H34.4493H34.4539H34.4586H34.4633H34.468H34.4726H34.4773H34.482H34.4867H34.4914H34.4961H34.5008H34.5055H34.5102H34.5149H34.5196H34.5243H34.529H34.5337H34.5384H34.5431H34.5478H34.5525H34.5572H34.5619H34.5666H34.5713H34.5759H34.5806H34.5853H34.59H34.5947H34.5994H34.6041H34.6088H34.6135H34.6182H34.6229H34.6276H34.6322H34.6369H34.6416H34.6463H34.6509H34.6556H34.6603H34.6649H34.6696H34.6742H34.6789H34.6835H34.6882H34.6928H34.6975H34.7021H34.7067H34.7114H34.716H34.7206H34.7252H34.7298H34.7344H34.739H34.7436H34.7482H34.7528H34.7573H34.7619H34.7665H34.771H34.7756H34.7801H34.7847H34.7892H34.7937H34.7983H34.8028H34.8073H34.8118H34.8163H34.8207H34.8252H34.8297H34.8342H34.8386H34.8431H34.8475H34.8519H34.8563H34.8608H34.8652H34.8696H34.8739H34.8783H34.8827H34.8871H34.8914H34.8957H34.9001H34.9044H34.9087H34.913H34.9173H34.9216H34.9258H34.9301H34.9344H34.9386H34.9428H34.947H34.9512H34.9554H34.9596H34.9638H34.968H34.9721H34.9762H34.9804H34.9845H34.9886H34.9927H34.9967H35.0008H35.0049H35.0089H35.0129H35.0169H35.0209H35.0249H35.0289H35.0328H35.0368H35.0407H35.0446H35.0485H35.0524H35.0563H35.0601H35.064H35.0678H35.0716H35.0754H35.0792H35.083H35.0867H35.0905H35.0942H35.0979H35.1016H35.1052H35.1089H35.1125H35.1162H35.1198H35.1234H35.1269H35.1305H35.134H35.1376H35.1411H35.1446H35.148H35.1515H35.1549H35.1583H35.1617H35.1651H35.1685H35.1718H35.1751H35.1785H35.1817H35.185H35.1883H35.1915H35.1947H35.1979H35.2011H35.2042H35.2073H35.2105H35.2136H35.2166H35.2197H35.2227H35.2257H35.2287H35.2317H35.2346H35.2376H35.2405H35.2433H35.2462H35.249H35.2519H35.2547H35.2574H35.2602H35.2629H35.2656H35.2683H35.271H35.2736H35.2762H35.2788H35.2814H35.284H35.2865H35.289H35.2915H35.2939H35.2963H35.2988H35.3011H35.3035H35.3058H35.3081H35.3104H35.3127H35.3149H35.3171H35.3193H35.3215H35.3236H35.3257H35.3278H35.3298H35.3319H35.3339H35.3359H35.3378H35.3397H35.3416H35.3435H35.3454H35.3472H35.349H35.3507H35.3525H35.3542H35.3559H35.3575H35.3591H35.3607H35.3623H35.3638H35.3654H35.3668H35.3683H35.3697H35.3711H35.3725H35.3738H35.3751H35.3764H35.3777H35.3789H35.3801H35.3813H35.3824H35.3835H35.3846H35.3856H35.3866H35.3876H35.3886H35.3895H35.3904H35.3912H35.3921H35.3929H35.3936H35.3944H35.3951H35.3957H35.3964H35.397H35.3975C35.8652 49.2484 36.2575 49.2489 36.611 49.2493C37.7058 49.2507 38.4284 49.2516 39.8669 49.2362L39.9095 49.2358L39.9496 49.2212C45.5508 47.1869 49.9861 44.5108 50.9901 39.1464C51.4877 36.6144 51.2476 34.4658 50.4674 32.6112C49.6882 30.759 48.3776 29.217 46.7601 27.8841C43.8937 25.5221 40.0235 23.7875 36.3493 22.1408C35.8904 21.9351 35.4344 21.7307 34.9839 21.5267C33.7812 20.9571 32.4183 20.377 31.0054 19.7755C30.5191 19.5685 30.0268 19.359 29.5331 19.1465C27.5996 18.3143 25.6385 17.4344 23.894 16.4724C22.1473 15.5091 20.6334 14.4717 19.5845 13.3304C18.5384 12.1922 17.9704 10.9688 18.0697 9.62025Z" fill="#126D9E" stroke="white" stroke-width="0.5" stroke-miterlimit="10"/>
</svg>
