<svg width="140" height="52" viewBox="0 0 140 52" fill="none" xmlns="http://www.w3.org/2000/svg">
<path d="M58.5867 29.4282V28.6175H61.5591V29.5802C61.5591 30.5813 62.1888 30.9421 63.1881 30.9421C64.1874 30.9421 64.8197 30.5813 64.8197 29.5396C64.8197 28.3784 64.19 27.6366 62.1302 26.374C59.5019 24.7526 58.6428 23.6116 58.6428 22.0085C58.6428 19.8056 60.2717 18.5227 63.3309 18.5227C66.39 18.5227 67.9196 19.8056 67.9196 22.0491V22.6287H64.9344V21.9072C64.9344 20.906 64.3608 20.5271 63.3615 20.5271C62.3622 20.5271 61.7886 20.906 61.7886 21.8687C61.7886 22.882 62.4463 23.6299 64.5036 24.8925C67.1344 26.5138 67.9629 27.6366 67.9629 29.3795C67.9629 31.6636 66.3059 32.9444 63.2187 32.9444C60.1315 32.9444 58.5867 31.6717 58.5867 29.4282Z" fill="#08405D"/>
<path d="M69.7653 18.7314H72.9086V32.7519H69.7653V18.7314Z" fill="#08405D"/>
<path d="M74.7109 29.4282V28.6175H77.6833V29.5802C77.6833 30.5813 78.313 30.9421 79.3123 30.9421C80.3117 30.9421 80.9439 30.5813 80.9439 29.5396C80.9439 28.3784 80.3142 27.6366 78.2544 26.374C75.6235 24.7526 74.767 23.6116 74.767 22.0085C74.767 19.8056 76.396 18.5227 79.4551 18.5227C82.5142 18.5227 84.0438 19.8056 84.0438 22.0491V22.6287H81.056V21.9072C81.056 20.906 80.485 20.5271 79.4831 20.5271C78.4813 20.5271 77.9128 20.906 77.9128 21.8687C77.9128 22.882 78.5705 23.6299 80.6278 24.8925C83.2586 26.5138 84.0871 27.6366 84.0871 29.3795C84.0871 31.6636 82.4301 32.9444 79.3404 32.9444C76.2506 32.9444 74.7109 31.6717 74.7109 29.4282Z" fill="#08405D"/>
<path d="M90.463 18.7314H93.6062V30.7496H98.7813V32.7519H90.463V18.7314Z" fill="#08405D"/>
<path d="M100.29 18.7314H108.869V20.7338H103.441V24.4406H107.76V26.4429H103.441V30.7496H108.874V32.7519H100.29V18.7314Z" fill="#08405D"/>
<path d="M110.444 29.4282V22.0572C110.444 19.8137 112.045 18.5308 115.135 18.5308C118.225 18.5308 119.823 19.8137 119.823 22.0572V23.259H116.861V21.9153C116.861 20.9142 116.231 20.5352 115.229 20.5352C114.227 20.5352 113.6 20.9142 113.6 21.9153V29.5883C113.6 30.5895 114.23 30.9502 115.229 30.9502C116.229 30.9502 116.861 30.5895 116.861 29.5883V26.8442H115.288V24.8398H119.833V29.4282C119.833 31.6717 118.232 32.9526 115.145 32.9526C112.058 32.9526 110.444 31.6717 110.444 29.4282Z" fill="#08405D"/>
<path d="M121.852 18.7314H124.998V32.7519H121.852V18.7314Z" fill="#08405D"/>
<path d="M126.803 29.4282V28.6175H129.775V29.5802C129.775 30.5813 130.405 30.9421 131.404 30.9421C132.404 30.9421 133.036 30.5813 133.036 29.5396C133.036 28.3784 132.406 27.6366 130.349 26.374C127.718 24.7526 126.859 23.6116 126.859 22.0085C126.859 19.8056 128.491 18.5227 131.55 18.5227C134.609 18.5227 136.123 19.8056 136.123 22.0491V22.6287H133.146V21.9072C133.146 20.906 132.572 20.5271 131.573 20.5271C130.573 20.5271 130 20.906 130 21.8687C130 22.882 130.658 23.6299 132.715 24.8925C135.346 26.5138 136.174 27.6366 136.174 29.3795C136.174 31.6636 134.517 32.9444 131.43 32.9444C128.343 32.9444 126.803 31.6717 126.803 29.4282Z" fill="#08405D"/>
<path d="M59.1296 36.7992H61.4469C62.9638 36.7992 63.7107 37.4578 63.7107 38.6657V42.4819C63.7107 43.6979 62.9638 44.3485 61.4469 44.3485H59.1296V36.7992ZM61.424 43.2703C61.9084 43.2703 62.1888 43.0676 62.1888 42.5367V38.611C62.1888 38.0719 61.8982 37.8774 61.424 37.8774H60.6592V43.2703H61.424Z" fill="#08405D"/>
<path d="M64.7305 36.7992H68.868V37.8774H66.2473V39.8736H68.3301V40.9559H66.2473V43.2744H68.868V44.3526H64.7305V36.7992Z" fill="#08405D"/>
<path d="M69.5027 42.5589V42.1273H70.9354V42.6441C70.9354 43.1832 71.2387 43.3777 71.7231 43.3777C72.2075 43.3777 72.5083 43.175 72.5083 42.6238C72.5083 41.9975 72.2049 41.5983 71.2107 40.9194C69.9361 40.0459 69.5282 39.4318 69.5282 38.5684C69.5282 37.3828 70.3159 36.6917 71.7919 36.6917C73.268 36.6917 73.9971 37.3828 73.9971 38.5907V38.9028H72.5644V38.5238C72.5644 37.9848 72.2865 37.7801 71.7996 37.7801C71.3127 37.7801 71.0348 37.9827 71.0348 38.5036C71.0348 39.0244 71.3509 39.4521 72.3451 40.1249C73.6198 40.9984 74.0124 41.6024 74.0124 42.5407C74.0124 43.7709 73.2119 44.4599 71.718 44.4599C70.2241 44.4599 69.5027 43.7668 69.5027 42.5589Z" fill="#08405D"/>
<path d="M74.8945 36.7992H79.032V37.8774H76.4113V39.8736H78.4941V40.9559H76.4113V43.2744H79.032V44.3526H74.8945V36.7992Z" fill="#08405D"/>
<path d="M79.8961 36.7992H81.7979L83.2739 41.3186H83.302V36.7992H84.6531V44.3485H83.0955L81.2753 38.838H81.2472V44.3485H79.8961V36.7992Z" fill="#08405D"/>
<path d="M85.3898 36.7992H86.9194L87.9136 42.6562H87.9417L88.9333 36.7992H90.3278L88.8645 44.3485H86.8506L85.3898 36.7992Z" fill="#08405D"/>
<path d="M90.9193 42.5589V38.5907C90.9193 37.3747 91.7325 36.6917 93.2136 36.6917C94.6947 36.6917 95.508 37.3828 95.508 38.5907V42.5589C95.508 43.7749 94.6947 44.4559 93.2136 44.4559C91.7325 44.4559 90.9193 43.7668 90.9193 42.5589ZM94.009 42.6339V38.5238C94.009 37.9848 93.7056 37.7801 93.2238 37.7801C92.742 37.7801 92.4361 37.9827 92.4361 38.5238V42.6441C92.4361 43.1832 92.7394 43.3878 93.2238 43.3878C93.7082 43.3878 94.009 43.173 94.009 42.6339Z" fill="#08405D"/>
<path d="M96.5455 36.7992H98.0751V43.2703H100.571V44.3485H96.5455V36.7992Z" fill="#08405D"/>
<path d="M100.257 36.7992H101.787L102.781 42.6562H102.809L103.801 36.7992H105.195L103.732 44.3485H101.718L100.257 36.7992Z" fill="#08405D"/>
<path d="M105.924 36.7992H107.441V44.3485H105.924V36.7992Z" fill="#08405D"/>
<path d="M108.573 36.7992H110.743L111.709 42.2023H111.737L112.703 36.7992H114.867V44.3485H113.432V38.6333H113.407L112.303 44.3485H111.028L109.924 38.6333H109.896V44.3485H108.573V36.7992Z" fill="#08405D"/>
<path d="M115.991 36.7992H120.132V37.8774H117.508V39.8736H119.594V40.9559H117.508V43.2744H120.132V44.3526H115.991V36.7992Z" fill="#08405D"/>
<path d="M120.998 36.7992H122.903L124.379 41.3186H124.407V36.7992H125.758V44.3485H124.198L122.377 38.838H122.349V44.3485H120.998V36.7992Z" fill="#08405D"/>
<path d="M128.078 37.8774H126.492V36.7992H131.183V37.8774H129.597V44.3485H128.067L128.078 37.8774Z" fill="#08405D"/>
<path d="M131.741 42.5589V38.5907C131.741 37.3747 132.557 36.6917 134.035 36.6917C135.514 36.6917 136.33 37.3828 136.33 38.5907V42.5589C136.33 43.7749 135.514 44.4559 134.035 44.4559C132.557 44.4559 131.741 43.7668 131.741 42.5589ZM134.831 42.6339V38.5238C134.831 37.9848 134.527 37.7801 134.046 37.7801C133.564 37.7801 133.26 37.9827 133.26 38.5238V42.6441C133.26 43.1832 133.564 43.3878 134.046 43.3878C134.527 43.3878 134.831 43.173 134.831 42.6339Z" fill="#08405D"/>
<path d="M57.5771 47.6925H139.029" stroke="#08405D" stroke-width="2" stroke-miterlimit="10"/>
<path d="M33.1571 21.6483C26.8146 18.6103 15.9566 15.2852 16.3735 9.55825C16.6246 5.31668 21.718 3.19522 26.8951 3.61924C34.8281 4.25528 38.4179 8.21506 40.6732 16.8404H43.2618L41.7647 2.02648H40.076C38.9057 6.05201 36.0805 1.7098 26.8951 1.07377C18.3777 0.578626 5.51873 2.34718 4.76696 13.4469C4.18261 22.8506 14.7042 26.8815 22.9704 30.5527C31.9852 34.4441 37.8336 36.6326 36.5811 42.6428C36.0805 44.8903 35.0148 46.4751 31.9675 47.6545C31.9675 47.6639 31.9675 47.9404 31.9675 47.9498C31.9675 48.4127 31.9578 48.677 31.9965 48.7549C32.0882 48.7549 33.5741 48.7549 33.6674 48.7549C35.5541 48.7549 36.1916 48.7629 38.0621 48.7428C43.5644 46.722 47.8062 44.1013 48.7672 38.9057C50.6925 29.0016 41.1739 25.3195 33.1571 21.6483Z" fill="#126D9E" stroke="white" stroke-width="2" stroke-miterlimit="10"/>
<path d="M53 37.752L52.0824 51H16.7234V49.3415C21.086 49.3415 22.1178 46.1519 22.1178 42.2888V16.834C22.1178 12.9695 21.086 9.77991 16.7234 9.77991V8.06235H37.2144V9.77991C32.8519 9.77991 31.82 12.9695 31.82 16.834V48.6062H41.6397C46.5769 48.6062 49.3892 43.9446 51.168 37.7493L53 37.752Z" fill="#137DC5" stroke="white" stroke-miterlimit="10"/>
<path d="M19.5192 47.8712C19.5852 47.8216 20.3096 47.2996 20.3435 47.2486C16.0807 46.5777 13.9977 45.1164 13.3779 42.4381C12.2929 37.7725 16.1339 36.0039 19.809 36.216C19.809 33.5323 16.5524 29.7818 10.9552 29.288C4.77683 28.7929 -0.234427 33.1056 1.26911 39.2566C2.60684 44.8628 8.58075 48.1798 17.2333 49.5069C17.9561 48.9259 18.7385 48.4589 19.5192 47.8712Z" fill="#126D9E" stroke="white" stroke-width="2" stroke-miterlimit="10"/>
</svg>
