<svg width="74" height="97" viewBox="0 0 74 97" fill="none" xmlns="http://www.w3.org/2000/svg">
<g clip-path="url(#clip0_106_2)">
<path d="M72.0935 49.184L70.868 66.0668H23.6432V63.9533C29.4697 63.9533 30.8479 59.8886 30.8479 54.9655V22.5268C30.8479 17.602 29.4697 13.5373 23.6432 13.5373V11.3485H51.0106V13.5373C45.1841 13.5373 43.806 17.602 43.806 22.5268V63.0162H56.921C63.515 63.0162 67.2711 57.0757 69.6468 49.1806L72.0935 49.184Z" fill="#137DC5" stroke="white" stroke-miterlimit="10"/>
<path d="M26.5501 63.5719C26.6382 63.5087 27.6057 62.8435 27.6509 62.7785C21.9577 61.9235 19.1756 60.0613 18.3478 56.6482C16.8987 50.7025 22.0286 48.4487 26.9371 48.7189C26.9371 45.2989 22.5876 40.5194 15.1121 39.8901C6.86037 39.2592 0.167423 44.7551 2.17552 52.5937C3.96217 59.7381 11.9408 63.9652 23.4971 65.6564C24.4624 64.916 25.5073 64.3209 26.5501 63.5719Z" fill="#126D9E" stroke="white" stroke-width="2" stroke-miterlimit="10"/>
<path d="M45.756 28.2605C37.285 24.389 22.7833 20.1516 23.3401 12.8534C23.6755 7.44805 30.4781 4.74454 37.3925 5.2849C47.9877 6.09544 52.7822 11.1416 55.7944 22.1335H59.2516L57.2521 3.25513H54.9967C53.4337 8.38513 49.6604 2.85157 37.3925 2.04103C26.0169 1.41004 8.84268 3.66382 7.83863 17.8089C7.05818 29.7926 21.1106 34.9295 32.1508 39.608C44.1908 44.567 52.0018 47.356 50.3291 55.0151C49.6604 57.8794 48.2371 59.8989 44.1672 61.402C44.1672 61.4139 44.1672 61.7662 44.1672 61.7782C44.1672 62.3681 44.1543 62.705 44.2059 62.8042C44.3284 62.8042 46.3129 62.8042 46.4376 62.8042C48.9574 62.8042 49.8088 62.8144 52.3071 62.7888C59.6558 60.2135 65.321 56.8739 66.6046 50.2528C69.176 37.6313 56.463 32.939 45.756 28.2605Z" fill="#126D9E" stroke="white" stroke-width="2" stroke-miterlimit="10"/>
<path d="M5.33813 79.6425V78.9585H7.84504V79.7708C7.84504 80.6155 8.37608 80.9199 9.21888 80.9199C10.0617 80.9199 10.5949 80.6155 10.5949 79.7366C10.5949 78.7567 10.0638 78.1309 8.32663 77.0655C6.10998 75.6975 5.38544 74.7348 5.38544 73.3822C5.38544 71.5234 6.75928 70.441 9.33928 70.441C11.9193 70.441 13.2093 71.5234 13.2093 73.4164V73.9055H10.6916V73.2967C10.6916 72.452 10.2079 72.1322 9.36509 72.1322C8.52229 72.1322 8.03853 72.452 8.03853 73.2642C8.03853 74.1192 8.59323 74.7502 10.3283 75.8155C12.5471 77.1835 13.2458 78.1309 13.2458 79.6015C13.2458 81.5286 11.8483 82.6094 9.24468 82.6094C6.64103 82.6094 5.33813 81.5355 5.33813 79.6425Z" fill="#08405D"/>
<path d="M14.7659 70.6172H17.4169V82.4469H14.7659V70.6172Z" fill="#08405D"/>
<path d="M18.9369 79.6425V78.9585H21.4438V79.7708C21.4438 80.6155 21.9748 80.9199 22.8176 80.9199C23.6604 80.9199 24.1936 80.6155 24.1936 79.7366C24.1936 78.7567 23.6626 78.1309 21.9254 77.0655C19.7066 75.6975 18.9842 74.7348 18.9842 73.3822C18.9842 71.5234 20.358 70.441 22.938 70.441C25.518 70.441 26.808 71.5234 26.808 73.4164V73.9055H24.2882V73.2967C24.2882 72.452 23.8066 72.1322 22.9617 72.1322C22.1167 72.1322 21.6373 72.452 21.6373 73.2642C21.6373 74.1192 22.192 74.7502 23.927 75.8155C26.1458 77.1835 26.8446 78.1309 26.8446 79.6015C26.8446 81.5286 25.4471 82.6094 22.8413 82.6094C20.2355 82.6094 18.9369 81.5355 18.9369 79.6425Z" fill="#08405D"/>
<path d="M32.2217 70.6172H34.8727V80.7575H39.2372V82.4469H32.2217V70.6172Z" fill="#08405D"/>
<path d="M40.51 70.6172H47.7448V72.3066H43.1674V75.4342H46.8095V77.1237H43.1674V80.7575H47.7491V82.4469H40.51V70.6172Z" fill="#08405D"/>
<path d="M49.0735 79.6425V73.4232C49.0735 71.5303 50.4236 70.4478 53.0294 70.4478C55.6352 70.4478 56.9833 71.5303 56.9833 73.4232V74.4373H54.485V73.3035C54.485 72.4588 53.9539 72.139 53.109 72.139C52.264 72.139 51.7352 72.4588 51.7352 73.3035V79.7776C51.7352 80.6223 52.2662 80.9267 53.109 80.9267C53.9518 80.9267 54.485 80.6223 54.485 79.7776V77.4623H53.1585V75.7711H56.9919V79.6425C56.9919 81.5355 55.6417 82.6162 53.0381 82.6162C50.4344 82.6162 49.0735 81.5355 49.0735 79.6425Z" fill="#08405D"/>
<path d="M58.6947 70.6172H61.3478V82.4469H58.6947V70.6172Z" fill="#08405D"/>
<path d="M62.87 79.6425V78.9585H65.3769V79.7708C65.3769 80.6155 65.9079 80.9199 66.7507 80.9199C67.5935 80.9199 68.1267 80.6155 68.1267 79.7366C68.1267 78.7567 67.5957 78.1309 65.8606 77.0655C63.6418 75.6975 62.9173 74.7348 62.9173 73.3822C62.9173 71.5234 64.2933 70.441 66.8733 70.441C69.4533 70.441 70.7304 71.5234 70.7304 73.4164V73.9055H68.2192V73.2967C68.2192 72.452 67.7354 72.1322 66.8926 72.1322C66.0498 72.1322 65.5661 72.452 65.5661 73.2642C65.5661 74.1192 66.1208 74.7502 67.8558 75.8155C70.0746 77.1835 70.7734 78.1309 70.7734 79.6015C70.7734 81.5286 69.3759 82.6094 66.7723 82.6094C64.1686 82.6094 62.87 81.5355 62.87 79.6425Z" fill="#08405D"/>
<path d="M5.79608 85.8618H7.75043C9.02968 85.8618 9.65963 86.4175 9.65963 87.4367V90.6566C9.65963 91.6826 9.02968 92.2315 7.75043 92.2315H5.79608V85.8618ZM7.73108 91.3218C8.13958 91.3218 8.37608 91.1508 8.37608 90.7028V87.3905C8.37608 86.9357 8.13098 86.7715 7.73108 86.7715H7.08608V91.3218H7.73108Z" fill="#08405D"/>
<path d="M10.5197 85.8618H14.0091V86.7715H11.7989V88.4559H13.5555V89.369H11.7989V91.3252H14.0091V92.235H10.5197V85.8618Z" fill="#08405D"/>
<path d="M14.5444 90.7216V90.3574H15.7527V90.7934C15.7527 91.2483 16.0086 91.4125 16.4171 91.4125C16.8256 91.4125 17.0793 91.2415 17.0793 90.7763C17.0793 90.248 16.8234 89.9111 15.9849 89.3382C14.9099 88.6012 14.5659 88.0831 14.5659 87.3546C14.5659 86.3543 15.2303 85.7712 16.4751 85.7712C17.72 85.7712 18.3349 86.3543 18.3349 87.3734V87.6368H17.1266V87.317C17.1266 86.8622 16.8922 86.6894 16.4816 86.6894C16.0709 86.6894 15.8366 86.8604 15.8366 87.2999C15.8366 87.7394 16.1032 88.1002 16.9417 88.6679C18.0167 89.4049 18.3478 89.9145 18.3478 90.7062C18.3478 91.7442 17.6727 92.3256 16.4128 92.3256C15.1529 92.3256 14.5444 91.7408 14.5444 90.7216Z" fill="#08405D"/>
<path d="M19.0917 85.8618H22.5811V86.7715H20.3709V88.4559H22.1275V89.369H20.3709V91.3252H22.5811V92.235H19.0917V85.8618Z" fill="#08405D"/>
<path d="M23.31 85.8618H24.9139L26.1587 89.6751H26.1824V85.8618H27.3219V92.2315H26.0082L24.4731 87.582H24.4495V92.2315H23.31V85.8618Z" fill="#08405D"/>
<path d="M27.9432 85.8618H29.2332L30.0717 90.8037H30.0954L30.9317 85.8618H32.1078L30.8737 92.2315H29.1752L27.9432 85.8618Z" fill="#08405D"/>
<path d="M32.6066 90.7216V87.3734C32.6066 86.3474 33.2924 85.7712 34.5416 85.7712C35.7907 85.7712 36.4766 86.3543 36.4766 87.3734V90.7216C36.4766 91.7476 35.7907 92.3222 34.5416 92.3222C33.2924 92.3222 32.6066 91.7408 32.6066 90.7216ZM35.2124 90.7849V87.317C35.2124 86.8622 34.9565 86.6894 34.5502 86.6894C34.1438 86.6894 33.8858 86.8604 33.8858 87.317V90.7934C33.8858 91.2483 34.1417 91.421 34.5502 91.421C34.9587 91.421 35.2124 91.2398 35.2124 90.7849Z" fill="#08405D"/>
<path d="M37.3516 85.8618H38.6416V91.3218H40.7465V92.2315H37.3516V85.8618Z" fill="#08405D"/>
<path d="M40.4821 85.8618H41.7721L42.6106 90.8037H42.6342L43.4706 85.8618H44.6466L43.4125 92.2315H41.714L40.4821 85.8618Z" fill="#08405D"/>
<path d="M45.2615 85.8618H46.5407V92.2315H45.2615V85.8618Z" fill="#08405D"/>
<path d="M47.4954 85.8618H49.325L50.1399 90.4207H50.1635L50.9784 85.8618H52.8037V92.2315H51.5933V87.4093H51.5718L50.6408 92.2315H49.5658L48.6349 87.4093H48.6112V92.2315H47.4954V85.8618Z" fill="#08405D"/>
<path d="M53.7519 85.8618H57.2435V86.7715H55.0311V88.4559H56.7898V89.369H55.0311V91.3252H57.2435V92.235H53.7519V85.8618Z" fill="#08405D"/>
<path d="M57.9744 85.8618H59.5805L60.8253 89.6751H60.849V85.8618H61.9885V92.2315H60.6727L59.1376 87.582H59.1139V92.2315H57.9744V85.8618Z" fill="#08405D"/>
<path d="M63.945 86.7715H62.6077V85.8618H66.5637V86.7715H65.2264V92.2315H63.9364L63.945 86.7715Z" fill="#08405D"/>
<path d="M67.0345 90.7216V87.3734C67.0345 86.3474 67.7225 85.7712 68.9695 85.7712C70.2165 85.7712 70.9045 86.3543 70.9045 87.3734V90.7216C70.9045 91.7476 70.2165 92.3222 68.9695 92.3222C67.7225 92.3222 67.0345 91.7408 67.0345 90.7216ZM69.6403 90.7849V87.317C69.6403 86.8622 69.3845 86.6894 68.9781 86.6894C68.5718 86.6894 68.316 86.8604 68.316 87.317V90.7934C68.316 91.2483 68.5718 91.421 68.9781 91.421C69.3845 91.421 69.6403 91.2398 69.6403 90.7849Z" fill="#08405D"/>
<path d="M4.48676 95.053H73.1814" stroke="#08405D" stroke-width="2" stroke-miterlimit="10"/>
</g>
<defs>
<clipPath id="clip0_106_2">
<rect width="74" height="97" fill="white"/>
</clipPath>
</defs>
</svg>
