<svg width="473" height="471" viewBox="0 0 473 471" fill="none" xmlns="http://www.w3.org/2000/svg">
<path d="M275.983 237.384L272.671 283.886H145.055V278.064C160.8 278.064 164.524 266.869 164.524 253.309V163.96C164.524 150.395 160.8 139.199 145.055 139.199V133.171H219.01V139.199C203.265 139.199 199.541 150.395 199.541 163.96V275.483H234.982C252.801 275.483 262.951 259.121 269.371 237.375L275.983 237.384Z" fill="#137DC5" stroke="white" stroke-miterlimit="10"/>
<path d="M152.91 277.014C153.148 276.84 155.762 275.007 155.884 274.829C140.5 272.474 132.981 267.344 130.745 257.943C126.829 241.566 140.691 235.359 153.955 236.103C153.955 226.683 142.202 213.518 122 211.785C99.7017 210.047 81.6152 225.185 87.0417 246.776C91.8698 266.454 113.431 278.097 144.659 282.755C147.268 280.716 150.092 279.077 152.91 277.014Z" fill="#126D9E" stroke="white" stroke-width="2" stroke-miterlimit="10"/>
<path d="M204.81 179.752C181.919 169.089 142.731 157.418 144.235 137.315C145.142 122.427 163.525 114.981 182.209 116.469C210.841 118.701 223.797 132.601 231.937 162.877H241.28L235.876 110.878H229.782C225.558 125.008 215.361 109.767 182.209 107.534C151.469 105.796 105.059 112.004 102.345 150.965C100.236 183.973 138.21 198.121 168.045 211.008C200.581 224.667 221.688 232.349 217.168 253.445C215.361 261.334 211.515 266.897 200.517 271.037C200.517 271.07 200.517 272.04 200.517 272.073C200.517 273.698 200.482 274.626 200.621 274.899C200.953 274.899 206.315 274.899 206.652 274.899C213.461 274.899 215.762 274.927 222.513 274.857C242.372 267.764 257.681 258.565 261.15 240.328C268.099 205.563 233.744 192.639 204.81 179.752Z" fill="#126D9E" stroke="white" stroke-width="2" stroke-miterlimit="10"/>
<path d="M89 295H274.635" stroke="#08405D" stroke-width="2" stroke-miterlimit="10"/>
</svg>
